<?xml version="1.0" encoding="UTF-8" standalone="no"?>
<!-- Created with Inkscape (http://www.inkscape.org/) -->

<svg
   version="1.1"
   id="svg2"
   xml:space="preserve"
   width="257.33334"
   height="637.33331"
   viewBox="0 0 257.33334 637.33331"
   sodipodi:docname="fullblock.svg"
   inkscape:version="1.1.2 (0a00cf5339, 2022-02-04)"
   xmlns:inkscape="http://www.inkscape.org/namespaces/inkscape"
   xmlns:sodipodi="http://sodipodi.sourceforge.net/DTD/sodipodi-0.dtd"
   xmlns="http://www.w3.org/2000/svg"
   xmlns:svg="http://www.w3.org/2000/svg"><defs
     id="defs6" /><sodipodi:namedview
     id="namedview4"
     pagecolor="#ffffff"
     bordercolor="#666666"
     borderopacity="1.0"
     inkscape:pageshadow="2"
     inkscape:pageopacity="0.0"
     inkscape:pagecheckerboard="0"
     showgrid="false"
     inkscape:zoom="1.1406904"
     inkscape:cx="-64.872992"
     inkscape:cy="318.22833"
     inkscape:window-width="1920"
     inkscape:window-height="1025"
     inkscape:window-x="0"
     inkscape:window-y="27"
     inkscape:window-maximized="1"
     inkscape:current-layer="g8" /><g
     id="g8"
     inkscape:groupmode="layer"
     inkscape:label="ink_ext_XXXXXX"
     transform="matrix(1.3333333,0,0,-1.3333333,0,637.33333)"><g
       id="g10"
       transform="scale(0.1)"><path
         d="m 1002.84,127.559 v 0"
         style="fill:none;stroke:#000000;stroke-width:28.346;stroke-linecap:butt;stroke-linejoin:miter;stroke-miterlimit:10;stroke-dasharray:none;stroke-opacity:1"
         id="path12" /><path
         d="M 1002.84,127.559 H 155.902"
         style="fill:none;stroke:#000000;stroke-width:28.346;stroke-linecap:butt;stroke-linejoin:miter;stroke-miterlimit:10;stroke-dasharray:none;stroke-opacity:1"
         id="path14" /><path
         d="m 155.902,127.559 c -78.2731,0 -141.7301,63.453 -141.7301,141.726"
         style="fill:none;stroke:#000000;stroke-width:28.346;stroke-linecap:butt;stroke-linejoin:miter;stroke-miterlimit:10;stroke-dasharray:none;stroke-opacity:1"
         id="path16" /><path
         d="M 14.1719,269.285 V 2111.78"
         style="fill:none;stroke:#000000;stroke-width:28.346;stroke-linecap:butt;stroke-linejoin:miter;stroke-miterlimit:10;stroke-dasharray:none;stroke-opacity:1"
         id="path18" /><path
         d="m 14.1719,2111.78 c 0,78.27 63.457,141.73 141.7301,141.73"
         style="fill:none;stroke:#000000;stroke-width:28.346;stroke-linecap:butt;stroke-linejoin:miter;stroke-miterlimit:10;stroke-dasharray:none;stroke-opacity:1"
         id="path20" /><path
         d="M 155.902,2253.51 H 849.777"
         style="fill:none;stroke:#000000;stroke-width:28.346;stroke-linecap:butt;stroke-linejoin:miter;stroke-miterlimit:10;stroke-dasharray:none;stroke-opacity:1"
         id="path22" /><path
         d="m 849.777,2253.51 -85.039,-21.26 21.258,21.26 -21.258,21.26"
         style="fill:#000000;fill-opacity:1;fill-rule:evenodd;stroke:none"
         id="path24" /><path
         d="m 849.777,2253.51 -85.039,-21.26 21.258,21.26 -21.258,21.26 z"
         style="fill:none;stroke:#000000;stroke-width:28.346;stroke-linecap:butt;stroke-linejoin:miter;stroke-miterlimit:10;stroke-dasharray:none;stroke-opacity:1"
         id="path26" /><path
         d="m 1088.49,2251.28 c 0,-46.97 -38.08,-85.04 -85.04,-85.04 -46.966,0 -85.04,38.07 -85.04,85.04 0,46.96 38.074,85.04 85.04,85.04 46.96,0 85.04,-38.08 85.04,-85.04"
         style="fill:#ffffff;fill-opacity:1;fill-rule:nonzero;stroke:none"
         id="path28" /><path
         d="m 1088.49,2251.28 c 0,-46.97 -38.08,-85.04 -85.04,-85.04 -46.966,0 -85.04,38.07 -85.04,85.04 0,46.96 38.074,85.04 85.04,85.04 46.96,0 85.04,-38.08 85.04,-85.04 z"
         style="fill:none;stroke:#000000;stroke-width:28.346;stroke-linecap:butt;stroke-linejoin:miter;stroke-miterlimit:10;stroke-dasharray:none;stroke-opacity:1"
         id="path30" /><path
         d="m 1008.07,2289.31 v -37.54 h 38.32 v -11.74 h -38.32 v -37.55 h -11.55 v 37.55 h -38.278 v 11.74 h 38.278 v 37.54 h 11.55"
         style="fill:#000000;fill-opacity:1;fill-rule:nonzero;stroke:none"
         id="path32" /><path
         d="m 166.637,524.402 h 1672.41 v 736.996 H 166.637 Z"
         style="fill:#fff4f4;fill-opacity:1;fill-rule:evenodd;stroke:none"
         id="path34" /><path
         d="m 95.7734,595.266 h 1814.14 v 595.266 H 95.7734 Z"
         style="fill:#fff4f4;fill-opacity:1;fill-rule:evenodd;stroke:none"
         id="path36" /><path
         d="M 166.637,1190.53 H 95.7734 c 0,39.14 31.7266,70.87 70.8636,70.87"
         style="fill:#fff4f4;fill-opacity:1;fill-rule:nonzero;stroke:none"
         id="path38" /><path
         d="m 95.7734,1190.53 c 0,39.14 31.7266,70.87 70.8636,70.87"
         style="fill:none;stroke:#000000;stroke-width:28.346;stroke-linecap:butt;stroke-linejoin:round;stroke-miterlimit:10;stroke-dasharray:none;stroke-opacity:1"
         id="path40" /><path
         d="M 95.7734,1190.53 V 595.266"
         style="fill:none;stroke:#000000;stroke-width:28.346;stroke-linecap:butt;stroke-linejoin:round;stroke-miterlimit:10;stroke-dasharray:none;stroke-opacity:1"
         id="path42" /><path
         d="m 166.637,595.266 v -70.864 c -39.137,0 -70.8636,31.727 -70.8636,70.864"
         style="fill:#fff4f4;fill-opacity:1;fill-rule:nonzero;stroke:none"
         id="path44" /><path
         d="m 166.637,524.402 c -39.137,0 -70.8636,31.727 -70.8636,70.864"
         style="fill:none;stroke:#000000;stroke-width:28.346;stroke-linecap:butt;stroke-linejoin:round;stroke-miterlimit:10;stroke-dasharray:none;stroke-opacity:1"
         id="path46" /><path
         d="M 166.637,524.402 H 1839.05"
         style="fill:none;stroke:#000000;stroke-width:28.346;stroke-linecap:butt;stroke-linejoin:round;stroke-miterlimit:10;stroke-dasharray:none;stroke-opacity:1"
         id="path48" /><path
         d="m 1839.05,595.266 h 70.87 c 0,-39.137 -31.73,-70.864 -70.87,-70.864"
         style="fill:#fff4f4;fill-opacity:1;fill-rule:nonzero;stroke:none"
         id="path50" /><path
         d="m 1909.92,595.266 c 0,-39.137 -31.73,-70.864 -70.87,-70.864"
         style="fill:none;stroke:#000000;stroke-width:28.346;stroke-linecap:butt;stroke-linejoin:round;stroke-miterlimit:10;stroke-dasharray:none;stroke-opacity:1"
         id="path52" /><path
         d="M 1909.92,595.266 V 1190.53"
         style="fill:none;stroke:#000000;stroke-width:28.346;stroke-linecap:butt;stroke-linejoin:round;stroke-miterlimit:10;stroke-dasharray:none;stroke-opacity:1"
         id="path54" /><path
         d="m 1839.05,1190.53 v 70.87 c 39.14,0 70.87,-31.73 70.87,-70.87"
         style="fill:#fff4f4;fill-opacity:1;fill-rule:nonzero;stroke:none"
         id="path56" /><path
         d="m 1839.05,1261.4 c 39.14,0 70.87,-31.73 70.87,-70.87"
         style="fill:none;stroke:#000000;stroke-width:28.346;stroke-linecap:butt;stroke-linejoin:round;stroke-miterlimit:10;stroke-dasharray:none;stroke-opacity:1"
         id="path58" /><path
         d="M 1839.05,1261.4 H 166.637"
         style="fill:none;stroke:#000000;stroke-width:28.346;stroke-linecap:butt;stroke-linejoin:round;stroke-miterlimit:10;stroke-dasharray:none;stroke-opacity:1"
         id="path60" /><path
         d="m 295.242,1073.05 c 6.16,10.73 13.531,18.65 22.11,23.75 8.582,5.11 18.687,7.67 30.324,7.67 15.621,0 27.672,-5.44 36.152,-16.32 8.508,-10.85 12.762,-26.3 12.762,-46.34 V 949.59 H 371.801 V 1041 c 0,14.35 -2.551,25 -7.66,31.94 -5.086,6.94 -12.86,10.41 -23.321,10.41 -12.785,0 -22.894,-4.24 -30.324,-12.72 -7.406,-8.49 -11.109,-20.05 -11.109,-34.69 V 949.59 H 274.602 V 1041 c 0,14.42 -2.555,25.08 -7.664,31.97 -5.086,6.92 -12.946,10.38 -23.579,10.38 -12.613,0 -22.632,-4.26 -30.066,-12.8 -7.406,-8.53 -11.109,-20.07 -11.109,-34.61 v -86.35 h -24.786 v 150.19 h 24.786 v -21.12 c 5.621,8.82 12.371,15.32 20.242,19.5 7.871,4.21 17.219,6.31 28.047,6.31 10.902,0 20.168,-2.69 27.793,-8.07 7.652,-5.35 13.312,-13.13 16.976,-23.35"
         style="fill:#000000;fill-opacity:1;fill-rule:nonzero;stroke:none"
         id="path62" /><path
         d="m 519.16,1024.68 c -19.945,0 -33.769,-2.28 -41.469,-6.85 -7.675,-4.55 -11.511,-12.31 -11.511,-23.287 0,-8.75 2.883,-15.691 8.652,-20.824 5.77,-5.133 13.613,-7.699 23.539,-7.699 13.664,0 24.629,4.824 32.891,14.48 8.285,9.656 12.429,22.5 12.429,38.54 v 5.64 H 519.16 m 49.207,9.9 v -84.99 h -24.676 v 21.121 c -5.621,-8.824 -12.636,-15.34 -21.046,-19.543 -8.411,-4.18 -18.688,-6.27 -30.836,-6.27 -15.375,0 -27.598,4.301 -36.668,12.907 -9.067,8.629 -13.602,20.179 -13.602,34.648 0,16.867 5.645,29.577 16.938,38.137 11.32,8.58 28.187,12.87 50.601,12.87 h 34.613 v 2.64 c 0,11.85 -3.742,21.02 -11.218,27.5 -7.457,6.5 -17.93,9.75 -31.426,9.75 -8.578,0 -16.938,-0.98 -25.078,-2.93 -8.117,-1.96 -15.926,-4.89 -23.43,-8.8 v 23.46 c 9.02,3.13 17.77,5.48 26.254,7.04 8.504,1.57 16.781,2.35 24.82,2.35 21.731,0 37.95,-5.78 48.657,-17.34 10.73,-11.54 16.097,-29.06 16.097,-52.55"
         style="fill:#000000;fill-opacity:1;fill-rule:nonzero;stroke:none"
         id="path64" /><path
         d="m 717.957,1095.08 v -23.46 c -6.969,3.91 -14.203,6.84 -21.707,8.8 -7.504,1.95 -15.277,2.93 -23.32,2.93 -12.246,0 -21.438,-1.92 -27.575,-5.76 -6.109,-3.84 -9.164,-9.59 -9.164,-17.27 0,-5.86 2.188,-10.47 6.563,-13.82 4.375,-3.32 13.176,-6.49 26.398,-9.5 l 8.473,-1.87 c 17.523,-3.76 29.969,-9.08 37.324,-15.95 7.383,-6.86 11.074,-16.45 11.074,-28.742 0,-14.008 -5.523,-25.106 -16.574,-33.293 -11.023,-8.165 -26.191,-12.247 -45.504,-12.247 -8.039,0 -16.425,0.782 -25.152,2.348 -8.703,1.563 -17.879,3.91 -27.535,7.039 v 25.813 c 9.117,-4.696 18.101,-8.215 26.949,-10.559 8.848,-2.348 17.613,-3.519 26.289,-3.519 11.613,0 20.547,1.976 26.805,5.937 6.258,3.984 9.387,9.582 9.387,16.793 0,6.699 -2.262,11.83 -6.786,15.4 -4.496,3.57 -14.398,7 -29.699,10.3 l -8.578,2.02 c -15.277,3.28 -26.316,8.3 -33.109,15.07 -6.797,6.77 -10.196,16.07 -10.196,27.91 0,14.37 5,25.46 14.996,33.29 10.024,7.82 24.239,11.73 42.645,11.73 9.117,0 17.695,-0.78 25.738,-2.35 8.043,-1.56 15.461,-3.91 22.258,-7.04"
         style="fill:#000000;fill-opacity:1;fill-rule:nonzero;stroke:none"
         id="path66" /><path
         d="m 767.148,1158.44 h 24.786 v -123.42 l 73.629,64.76 h 31.496 l -79.641,-70.26 82.977,-79.93 h -32.196 l -76.265,73.33 v -73.33 h -24.786 v 208.85"
         style="fill:#000000;fill-opacity:1;fill-rule:nonzero;stroke:none"
         id="path68" /><path
         d="m 1048.72,1031.72 v -11.73 H 935.316 c 1.075,-17.58 6.184,-30.97 15.325,-40.185 9.168,-9.192 21.941,-13.785 38.316,-13.785 9.461,0 18.643,1.171 27.543,3.519 8.89,2.344 17.71,5.863 26.47,10.559 v -23.465 c -8.85,-3.817 -17.92,-6.723 -27.21,-8.727 -9.29,-2.008 -18.725,-3.008 -28.307,-3.008 -23.953,0 -42.922,7.051 -56.906,21.157 -13.981,14.129 -20.973,33.218 -20.973,57.275 0,24.88 6.637,44.62 19.91,59.21 13.274,14.62 31.168,21.93 53.68,21.93 20.196,0 36.166,-6.53 47.926,-19.58 11.75,-13.03 17.63,-30.75 17.63,-53.17 m -24.63,7.04 c -0.18,13.57 -3.95,24.39 -11.34,32.45 -7.38,8.09 -17.145,12.14 -29.293,12.14 -13.762,0 -24.785,-3.91 -33.07,-11.73 -8.266,-7.8 -13.02,-18.8 -14.266,-33 l 87.969,0.14"
         style="fill:#000000;fill-opacity:1;fill-rule:nonzero;stroke:none"
         id="path70" /><path
         d="m 1191.14,1078.66 v 79.78 h 24.68 V 949.59 h -24.68 v 21.121 c -5.18,-8.727 -11.73,-15.215 -19.66,-19.469 -7.89,-4.23 -17.39,-6.344 -28.48,-6.344 -18.14,0 -32.91,7.321 -44.3,21.961 -11.39,14.668 -17.08,33.941 -17.08,57.821 0,23.89 5.69,43.15 17.08,57.79 11.39,14.67 26.16,22 44.3,22 11.09,0 20.59,-2.13 28.48,-6.38 7.93,-4.23 14.48,-10.71 19.66,-19.43 m -84.04,-53.98 c 0,-18.28 3.73,-32.629 11.18,-43.043 7.46,-10.414 17.71,-15.617 30.77,-15.617 13.05,0 23.33,5.203 30.83,15.617 7.51,10.414 11.26,24.763 11.26,43.043 0,18.29 -3.75,32.64 -11.26,43.05 -7.5,10.41 -17.78,15.62 -30.83,15.62 -13.06,0 -23.31,-5.21 -30.77,-15.62 -7.45,-10.41 -11.18,-24.76 -11.18,-43.05"
         style="fill:#000000;fill-opacity:1;fill-rule:nonzero;stroke:none"
         id="path72" /><path
         d="m 1454.97,1095.08 v -23.46 c -6.97,3.91 -14.2,6.84 -21.71,8.8 -7.5,1.95 -15.28,2.93 -23.32,2.93 -12.24,0 -21.44,-1.92 -27.57,-5.76 -6.11,-3.84 -9.17,-9.59 -9.17,-17.27 0,-5.86 2.19,-10.47 6.57,-13.82 4.37,-3.32 13.17,-6.49 26.4,-9.5 l 8.47,-1.87 c 17.52,-3.76 29.97,-9.08 37.32,-15.95 7.38,-6.86 11.08,-16.45 11.08,-28.742 0,-14.008 -5.53,-25.106 -16.58,-33.293 -11.02,-8.165 -26.19,-12.247 -45.5,-12.247 -8.04,0 -16.42,0.782 -25.15,2.348 -8.7,1.563 -17.88,3.91 -27.54,7.039 v 25.813 c 9.12,-4.696 18.1,-8.215 26.95,-10.559 8.85,-2.348 17.61,-3.519 26.29,-3.519 11.61,0 20.54,1.976 26.8,5.937 6.26,3.984 9.39,9.582 9.39,16.793 0,6.699 -2.26,11.83 -6.78,15.4 -4.5,3.57 -14.4,7 -29.71,10.3 l -8.57,2.02 c -15.28,3.28 -26.32,8.3 -33.11,15.07 -6.8,6.77 -10.2,16.07 -10.2,27.91 0,14.37 5,25.46 15,33.29 10.02,7.82 24.24,11.73 42.64,11.73 9.12,0 17.7,-0.78 25.74,-2.35 8.04,-1.56 15.47,-3.91 22.26,-7.04"
         style="fill:#000000;fill-opacity:1;fill-rule:nonzero;stroke:none"
         id="path74" /><path
         d="m 1633.52,1031.72 v -11.73 h -113.41 c 1.08,-17.58 6.19,-30.97 15.33,-40.185 9.17,-9.192 21.94,-13.785 38.31,-13.785 9.46,0 18.64,1.171 27.54,3.519 8.9,2.344 17.72,5.863 26.48,10.559 v -23.465 c -8.86,-3.817 -17.92,-6.723 -27.21,-8.727 -9.29,-2.008 -18.73,-3.008 -28.31,-3.008 -23.95,0 -42.92,7.051 -56.91,21.157 -13.98,14.129 -20.97,33.218 -20.97,57.275 0,24.88 6.64,44.62 19.91,59.21 13.27,14.62 31.17,21.93 53.68,21.93 20.19,0 36.17,-6.53 47.92,-19.58 11.76,-13.03 17.64,-30.75 17.64,-53.17 m -24.64,7.04 c -0.17,13.57 -3.95,24.39 -11.33,32.45 -7.38,8.09 -17.15,12.14 -29.3,12.14 -13.76,0 -24.78,-3.91 -33.07,-11.73 -8.26,-7.8 -13.02,-18.8 -14.26,-33 l 87.96,0.14"
         style="fill:#000000;fill-opacity:1;fill-rule:nonzero;stroke:none"
         id="path76" /><path
         d="m 1677.16,1158.44 h 24.64 V 949.59 h -24.64 v 208.85"
         style="fill:#000000;fill-opacity:1;fill-rule:nonzero;stroke:none"
         id="path78" /><path
         d="m 1831.04,1158.44 v -21.12 h -23.61 c -8.85,0 -15,-1.77 -18.45,-5.31 -3.42,-3.55 -5.13,-9.92 -5.13,-19.11 v -13.12 h 40.63 V 1081 h -40.63 V 949.59 h -24.82 V 1081 h -23.58 v 18.78 h 23.58 v 10.34 c 0,16.81 3.88,29.07 11.66,36.77 7.79,7.7 20.14,11.55 37.03,11.55 h 23.32"
         style="fill:#000000;fill-opacity:1;fill-rule:nonzero;stroke:none"
         id="path80" /><path
         d="m 425,674.688 c -19.945,0 -33.77,-2.286 -41.469,-6.856 -7.676,-4.547 -11.515,-12.309 -11.515,-23.281 0,-8.754 2.886,-15.696 8.656,-20.828 5.766,-5.133 13.613,-7.7 23.539,-7.7 13.664,0 24.625,4.829 32.891,14.485 8.285,9.652 12.429,22.5 12.429,38.535 v 5.645 H 425 m 49.207,9.902 v -84.992 h -24.676 v 21.117 c -5.625,-8.824 -12.64,-15.336 -21.047,-19.543 -8.41,-4.18 -18.687,-6.27 -30.836,-6.27 -15.378,0 -27.597,4.305 -36.668,12.907 -9.07,8.629 -13.601,20.179 -13.601,34.652 0,16.867 5.644,29.578 16.937,38.133 11.321,8.578 28.184,12.867 50.602,12.867 h 34.613 v 2.641 c 0,11.855 -3.742,21.023 -11.222,27.5 -7.454,6.503 -17.93,9.753 -31.422,9.753 -8.578,0 -16.942,-0.976 -25.078,-2.933 -8.118,-1.957 -15.926,-4.887 -23.43,-8.801 v 23.469 c 9.019,3.129 17.769,5.473 26.25,7.039 8.508,1.562 16.781,2.348 24.824,2.348 21.731,0 37.949,-5.782 48.656,-17.344 10.731,-11.539 16.098,-29.051 16.098,-52.543"
         style="fill:#000000;fill-opacity:1;fill-rule:nonzero;stroke:none"
         id="path82" /><path
         d="m 552.48,792.023 v -42.242 h 50.817 V 731.008 H 552.48 v -81.473 c 0,-12.246 1.672,-20.117 5.024,-23.613 3.348,-3.469 10.168,-5.207 20.457,-5.207 h 25.336 v -21.117 h -25.336 c -19.039,0 -32.18,3.582 -39.414,10.742 -7.234,7.187 -10.856,20.254 -10.856,39.195 v 81.473 h -18.113 v 18.773 h 18.113 v 42.242 h 24.789"
         style="fill:#000000;fill-opacity:1;fill-rule:nonzero;stroke:none"
         id="path84" /><path
         d="m 662.219,792.023 v -42.242 h 50.816 v -18.773 h -50.816 v -81.473 c 0,-12.246 1.672,-20.117 5.019,-23.613 3.352,-3.469 10.172,-5.207 20.461,-5.207 h 25.336 v -21.117 h -25.336 c -19.043,0 -32.179,3.582 -39.414,10.742 -7.238,7.187 -10.855,20.254 -10.855,39.195 v 81.473 h -18.114 v 18.773 h 18.114 v 42.242 h 24.789"
         style="fill:#000000;fill-opacity:1;fill-rule:nonzero;stroke:none"
         id="path86" /><path
         d="M 875.977,681.73 V 669.996 H 762.566 c 1.079,-17.574 6.184,-30.973 15.329,-40.187 9.164,-9.192 21.937,-13.786 38.316,-13.786 9.461,0 18.637,1.172 27.535,3.52 8.899,2.348 17.723,5.867 26.473,10.559 v -23.465 c -8.848,-3.813 -17.918,-6.723 -27.207,-8.727 -9.289,-2.004 -18.723,-3.008 -28.305,-3.008 -23.957,0 -42.926,7.055 -56.906,21.157 -13.981,14.129 -20.973,33.222 -20.973,57.273 0,24.887 6.637,44.625 19.91,59.219 13.274,14.617 31.164,21.926 53.68,21.926 20.191,0 36.164,-6.528 47.922,-19.582 11.758,-13.028 17.637,-30.75 17.637,-53.165 m -24.641,7.04 c -0.172,13.566 -3.945,24.382 -11.328,32.449 -7.383,8.09 -17.149,12.136 -29.297,12.136 -13.762,0 -24.789,-3.91 -33.074,-11.734 -8.262,-7.797 -13.016,-18.797 -14.262,-33 l 87.961,0.149"
         style="fill:#000000;fill-opacity:1;fill-rule:nonzero;stroke:none"
         id="path88" /><path
         d="m 1044.42,691.813 v -92.215 h -24.67 v 91.41 c 0,14.152 -2.78,24.746 -8.33,31.789 -5.54,7.039 -13.857,10.558 -24.932,10.558 -13.32,0 -23.832,-4.242 -31.531,-12.722 -7.676,-8.485 -11.512,-20.043 -11.512,-34.688 v -86.347 h -24.789 v 150.183 h 24.789 v -21.117 c 5.891,8.652 12.832,15.117 20.825,19.395 8.019,4.277 17.257,6.418 27.718,6.418 17.262,0 30.312,-5.305 39.162,-15.914 8.85,-10.586 13.27,-26.168 13.27,-46.75"
         style="fill:#000000;fill-opacity:1;fill-rule:nonzero;stroke:none"
         id="path90" /><path
         d="m 1120.99,792.023 v -42.242 h 50.82 v -18.773 h -50.82 v -81.473 c 0,-12.246 1.67,-20.117 5.03,-23.613 3.34,-3.469 10.16,-5.207 20.45,-5.207 h 25.34 v -21.117 h -25.34 c -19.04,0 -32.18,3.582 -39.41,10.742 -7.24,7.187 -10.86,20.254 -10.86,39.195 v 81.473 h -18.11 v 18.773 h 18.11 v 42.242 h 24.79"
         style="fill:#000000;fill-opacity:1;fill-rule:nonzero;stroke:none"
         id="path92" /><path
         d="m 1206.35,749.781 h 24.63 V 599.598 h -24.63 v 150.183 m 0,58.668 h 24.63 v -30.508 h -24.63 v 30.508"
         style="fill:#000000;fill-opacity:1;fill-rule:nonzero;stroke:none"
         id="path94" /><path
         d="m 1342.38,733.355 c -13.23,0 -23.69,-5.23 -31.39,-15.691 -7.68,-10.465 -11.51,-24.789 -11.51,-42.976 0,-18.184 3.81,-32.508 11.43,-42.973 7.66,-10.461 18.14,-15.692 31.47,-15.692 13.15,0 23.56,5.243 31.23,15.731 7.71,10.512 11.55,24.824 11.55,42.934 0,18.015 -3.84,32.292 -11.55,42.828 -7.67,10.558 -18.08,15.839 -31.23,15.839 m 0.03,21.122 c 21.44,0 38.28,-7.067 50.53,-21.196 12.24,-14.101 18.37,-33.633 18.37,-58.593 0,-24.883 -6.13,-44.403 -18.37,-58.555 -12.25,-14.153 -29.09,-21.231 -50.53,-21.231 -21.56,0 -38.44,7.078 -50.63,21.231 -12.2,14.152 -18.3,33.672 -18.3,58.555 0,24.96 6.1,44.492 18.3,58.593 12.19,14.129 29.07,21.196 50.63,21.196"
         style="fill:#000000;fill-opacity:1;fill-rule:nonzero;stroke:none"
         id="path96" /><path
         d="m 1580.37,691.813 v -92.215 h -24.68 v 91.41 c 0,14.152 -2.78,24.746 -8.32,31.789 -5.55,7.039 -13.86,10.558 -24.94,10.558 -13.32,0 -23.83,-4.242 -31.53,-12.722 -7.67,-8.485 -11.51,-20.043 -11.51,-34.688 v -86.347 h -24.79 v 150.183 h 24.79 v -21.117 c 5.89,8.652 12.83,15.117 20.82,19.395 8.02,4.277 17.26,6.418 27.72,6.418 17.26,0 30.32,-5.305 39.16,-15.914 8.85,-10.586 13.28,-26.168 13.28,-46.75"
         style="fill:#000000;fill-opacity:1;fill-rule:nonzero;stroke:none"
         id="path98" /><path
         d="M 634.348,439.363 V 329.418"
         style="fill:none;stroke:#000000;stroke-width:28.346;stroke-linecap:butt;stroke-linejoin:miter;stroke-miterlimit:10;stroke-dasharray:none;stroke-opacity:1"
         id="path100" /><path
         d="m 694.477,269.285 c -33.207,0 -60.129,26.926 -60.129,60.133"
         style="fill:none;stroke:#000000;stroke-width:28.346;stroke-linecap:butt;stroke-linejoin:miter;stroke-miterlimit:10;stroke-dasharray:none;stroke-opacity:1"
         id="path102" /><path
         d="M 694.477,269.285 H 1272.84"
         style="fill:none;stroke:#000000;stroke-width:28.346;stroke-linecap:butt;stroke-linejoin:miter;stroke-miterlimit:10;stroke-dasharray:none;stroke-opacity:1"
         id="path104" /><path
         d="m 1343,339.441 c 0,-38.742 -31.41,-70.156 -70.16,-70.156"
         style="fill:none;stroke:#000000;stroke-width:28.346;stroke-linecap:butt;stroke-linejoin:miter;stroke-miterlimit:10;stroke-dasharray:none;stroke-opacity:1"
         id="path106" /><path
         d="m 1343,339.441 v 128.27"
         style="fill:none;stroke:#000000;stroke-width:28.346;stroke-linecap:butt;stroke-linejoin:miter;stroke-miterlimit:10;stroke-dasharray:none;stroke-opacity:1"
         id="path108" /><path
         d="m 634.348,439.363 21.257,-85.039 -21.257,21.262 -21.262,-21.262"
         style="fill:#000000;fill-opacity:1;fill-rule:evenodd;stroke:none"
         id="path110" /><path
         d="m 634.348,439.363 21.257,-85.039 -21.257,21.262 -21.262,-21.262 z"
         style="fill:none;stroke:#000000;stroke-width:28.346;stroke-linecap:butt;stroke-linejoin:miter;stroke-miterlimit:10;stroke-dasharray:none;stroke-opacity:1"
         id="path112" /><path
         d="m 1343,467.711 21.26,-85.039 -21.26,21.258 -21.26,-21.258"
         style="fill:#000000;fill-opacity:1;fill-rule:evenodd;stroke:none"
         id="path114" /><path
         d="m 1343,467.711 21.26,-85.039 -21.26,21.258 -21.26,-21.258 z"
         style="fill:none;stroke:#000000;stroke-width:28.346;stroke-linecap:butt;stroke-linejoin:miter;stroke-miterlimit:10;stroke-dasharray:none;stroke-opacity:1"
         id="path116" /><path
         d="m 322.539,1502.34 h 1360.61 v 396.844 H 322.539 Z"
         style="fill:#f0ffe0;fill-opacity:1;fill-rule:evenodd;stroke:none"
         id="path118" /><path
         d="m 251.676,1573.2 h 1502.34 v 255.113 H 251.676 Z"
         style="fill:#f0ffe0;fill-opacity:1;fill-rule:evenodd;stroke:none"
         id="path120" /><path
         d="m 322.539,1828.32 h -70.863 c 0,39.13 31.726,70.86 70.863,70.86"
         style="fill:#f0ffe0;fill-opacity:1;fill-rule:nonzero;stroke:none"
         id="path122" /><path
         d="m 251.676,1828.32 c 0,39.13 31.726,70.86 70.863,70.86"
         style="fill:none;stroke:#000000;stroke-width:28.346;stroke-linecap:butt;stroke-linejoin:round;stroke-miterlimit:10;stroke-dasharray:none;stroke-opacity:1"
         id="path124" /><path
         d="M 251.676,1828.32 V 1573.2"
         style="fill:none;stroke:#000000;stroke-width:28.346;stroke-linecap:butt;stroke-linejoin:round;stroke-miterlimit:10;stroke-dasharray:none;stroke-opacity:1"
         id="path126" /><path
         d="m 322.539,1573.2 v -70.86 c -39.137,0 -70.863,31.73 -70.863,70.86"
         style="fill:#f0ffe0;fill-opacity:1;fill-rule:nonzero;stroke:none"
         id="path128" /><path
         d="m 322.539,1502.34 c -39.137,0 -70.863,31.73 -70.863,70.86"
         style="fill:none;stroke:#000000;stroke-width:28.346;stroke-linecap:butt;stroke-linejoin:round;stroke-miterlimit:10;stroke-dasharray:none;stroke-opacity:1"
         id="path130" /><path
         d="M 322.539,1502.34 H 1683.15"
         style="fill:none;stroke:#000000;stroke-width:28.346;stroke-linecap:butt;stroke-linejoin:round;stroke-miterlimit:10;stroke-dasharray:none;stroke-opacity:1"
         id="path132" /><path
         d="m 1683.15,1573.2 h 70.87 c 0,-39.13 -31.73,-70.86 -70.87,-70.86"
         style="fill:#f0ffe0;fill-opacity:1;fill-rule:nonzero;stroke:none"
         id="path134" /><path
         d="m 1754.02,1573.2 c 0,-39.13 -31.73,-70.86 -70.87,-70.86"
         style="fill:none;stroke:#000000;stroke-width:28.346;stroke-linecap:butt;stroke-linejoin:round;stroke-miterlimit:10;stroke-dasharray:none;stroke-opacity:1"
         id="path136" /><path
         d="m 1754.02,1573.2 v 255.12"
         style="fill:none;stroke:#000000;stroke-width:28.346;stroke-linecap:butt;stroke-linejoin:round;stroke-miterlimit:10;stroke-dasharray:none;stroke-opacity:1"
         id="path138" /><path
         d="m 1683.15,1828.32 v 70.86 c 39.14,0 70.87,-31.73 70.87,-70.86"
         style="fill:#f0ffe0;fill-opacity:1;fill-rule:nonzero;stroke:none"
         id="path140" /><path
         d="m 1683.15,1899.18 c 39.14,0 70.87,-31.73 70.87,-70.86"
         style="fill:none;stroke:#000000;stroke-width:28.346;stroke-linecap:butt;stroke-linejoin:round;stroke-miterlimit:10;stroke-dasharray:none;stroke-opacity:1"
         id="path142" /><path
         d="M 1683.15,1899.18 H 322.539"
         style="fill:none;stroke:#000000;stroke-width:28.346;stroke-linecap:butt;stroke-linejoin:round;stroke-miterlimit:10;stroke-dasharray:none;stroke-opacity:1"
         id="path144" /><path
         d="m 444.418,1694.79 c 5.82,-1.93 11.465,-6.07 16.941,-12.43 5.5,-6.35 11.024,-15.08 16.575,-26.18 l 27.461,-54.63 H 476.32 l -25.629,51.26 c -6.601,13.39 -13.007,22.28 -19.214,26.65 -6.211,4.38 -14.68,6.57 -25.411,6.57 h -29.515 v -84.48 h -27.059 v 199.47 h 61.121 c 22.879,0 39.953,-4.79 51.223,-14.34 11.269,-9.56 16.902,-23.98 16.902,-43.27 0,-12.59 -2.933,-23.04 -8.8,-31.35 -5.84,-8.29 -14.348,-14.04 -25.52,-17.27 m -67.867,85.1 v -72.74 h 34.062 c 13.055,0 22.903,3.08 29.555,9.24 6.672,6.18 10.008,15.27 10.008,27.28 0,11.97 -3.336,21.01 -10.008,27.1 -6.652,6.08 -16.5,9.12 -29.555,9.12 h -34.062"
         style="fill:#000000;fill-opacity:1;fill-rule:nonzero;stroke:none"
         id="path146" /><path
         d="m 544.188,1801.02 h 40.332 l 51.078,-136.41 51.367,136.41 h 40.336 v -199.47 h -26.403 v 175.04 l -51.625,-137.5 h -27.207 l -51.589,137.5 v -175.04 h -26.289 v 199.47"
         style="fill:#000000;fill-opacity:1;fill-rule:nonzero;stroke:none"
         id="path148" /><path
         d="m 905.582,1796.32 v -25.81 c -10.266,4.74 -19.957,8.27 -29.074,10.6 -9.117,2.32 -17.918,3.48 -26.403,3.48 -14.761,0 -26.14,-2.9 -34.136,-8.69 -7.992,-5.77 -11.989,-14 -11.989,-24.68 0,-8.95 2.653,-15.7 7.958,-20.27 5.328,-4.55 15.41,-8.23 30.25,-11.04 l 16.351,-3.41 c 20.191,-3.89 35.09,-10.73 44.695,-20.54 9.61,-9.8 14.411,-22.91 14.411,-39.34 0,-19.6 -6.5,-34.46 -19.504,-44.58 -13.004,-10.13 -32.059,-15.18 -57.164,-15.18 -9.461,0 -19.532,0.99 -30.211,2.96 -10.684,1.98 -21.746,4.91 -33.184,8.77 v 28.16 c 11,-6.21 21.766,-10.89 32.301,-14.04 10.535,-3.16 20.902,-4.73 31.094,-4.73 15.472,0 27.402,3.1 35.785,9.31 8.41,6.21 12.613,15.06 12.613,26.55 0,10.02 -3.016,17.85 -9.055,23.5 -6.039,5.67 -15.937,9.92 -29.699,12.76 l -16.5,3.3 c -20.191,4.03 -34.797,10.35 -43.816,18.96 -9.02,8.62 -13.532,20.61 -13.532,35.96 0,17.8 6.235,31.81 18.7,42.02 12.468,10.25 29.652,15.37 51.554,15.37 9.364,0 18.907,-0.78 28.637,-2.35 9.754,-1.56 19.727,-3.91 29.918,-7.04"
         style="fill:#000000;fill-opacity:1;fill-rule:nonzero;stroke:none"
         id="path150" /><path
         d="m 963.316,1801.02 h 36.446 l 88.768,-166.88 v 166.88 h 26.26 v -199.47 h -36.45 l -88.735,166.87 v -166.87 h -26.289 v 199.47"
         style="fill:#000000;fill-opacity:1;fill-rule:nonzero;stroke:none"
         id="path152" /><path
         d="m 1229.97,1735.31 c -13.23,0 -23.69,-5.23 -31.39,-15.7 -7.67,-10.46 -11.51,-24.78 -11.51,-42.97 0,-18.18 3.81,-32.51 11.44,-42.97 7.65,-10.46 18.13,-15.69 31.46,-15.69 13.15,0 23.56,5.24 31.24,15.73 7.7,10.5 11.55,24.82 11.55,42.93 0,18.02 -3.85,32.29 -11.55,42.83 -7.68,10.56 -18.09,15.84 -31.24,15.84 m 0.03,21.12 c 21.44,0 38.29,-7.07 50.53,-21.2 12.25,-14.1 18.37,-33.63 18.37,-58.59 0,-24.88 -6.12,-44.4 -18.37,-58.55 -12.24,-14.16 -29.09,-21.23 -50.53,-21.23 -21.55,0 -38.43,7.07 -50.63,21.23 -12.2,14.15 -18.3,33.67 -18.3,58.55 0,24.96 6.1,44.49 18.3,58.59 12.2,14.13 29.08,21.2 50.63,21.2"
         style="fill:#000000;fill-opacity:1;fill-rule:nonzero;stroke:none"
         id="path154" /><path
         d="m 1430.16,1728.27 c -2.77,2.42 -5.78,4.19 -9.06,5.32 -3.25,1.14 -6.84,1.72 -10.78,1.72 -13.96,0 -24.68,-4.6 -32.16,-13.79 -7.45,-9.16 -11.18,-22.33 -11.18,-39.49 v -80.48 h -24.78 v 150.18 h 24.78 v -21.12 c 5.18,8.73 11.93,15.21 20.24,19.44 8.33,4.25 18.44,6.38 30.32,6.38 1.71,0 3.6,-0.2 5.65,-0.59 2.05,-0.39 4.33,-0.98 6.82,-1.76 l 0.15,-25.81"
         style="fill:#000000;fill-opacity:1;fill-rule:nonzero;stroke:none"
         id="path156" /><path
         d="m 1569.78,1725 c 6.16,10.73 13.53,18.66 22.11,23.77 8.58,5.11 18.68,7.66 30.32,7.66 15.62,0 27.67,-5.44 36.15,-16.32 8.51,-10.85 12.77,-26.3 12.77,-46.34 v -92.22 h -24.79 v 91.41 c 0,14.35 -2.56,24.99 -7.67,31.93 -5.08,6.95 -12.85,10.42 -23.31,10.42 -12.79,0 -22.9,-4.24 -30.33,-12.72 -7.4,-8.49 -11.11,-20.05 -11.11,-34.69 v -86.35 h -24.79 v 91.41 c 0,14.42 -2.55,25.08 -7.66,31.97 -5.08,6.92 -12.94,10.38 -23.58,10.38 -12.61,0 -22.63,-4.27 -30.06,-12.8 -7.41,-8.53 -11.11,-20.07 -11.11,-34.61 v -86.35 h -24.79 v 150.18 h 24.79 v -21.12 c 5.62,8.83 12.37,15.33 20.24,19.51 7.87,4.2 17.22,6.31 28.05,6.31 10.9,0 20.17,-2.69 27.79,-8.07 7.65,-5.35 13.31,-13.14 16.98,-23.36"
         style="fill:#000000;fill-opacity:1;fill-rule:nonzero;stroke:none"
         id="path158" /><path
         d="m 1002.84,1261.4 v 170.07"
         style="fill:none;stroke:#000000;stroke-width:28.346;stroke-linecap:butt;stroke-linejoin:round;stroke-miterlimit:10;stroke-dasharray:none;stroke-opacity:1"
         id="path160" /><path
         d="m 1002.84,1431.47 21.27,-85.04 -21.27,21.27 -21.254,-21.27"
         style="fill:#000000;fill-opacity:1;fill-rule:evenodd;stroke:none"
         id="path162" /><path
         d="m 1002.84,1431.47 21.27,-85.04 -21.27,21.27 -21.254,-21.27 z"
         style="fill:none;stroke:#000000;stroke-width:28.346;stroke-linecap:butt;stroke-linejoin:miter;stroke-miterlimit:10;stroke-dasharray:none;stroke-opacity:1"
         id="path164" /><path
         d="m 478.445,3075.54 h 1048.8 v 396.844 h -1048.8 z"
         style="fill:#e8e8ff;fill-opacity:1;fill-rule:evenodd;stroke:none"
         id="path166" /><path
         d="m 407.578,3146.41 h 1190.53 v 255.113 H 407.578 Z"
         style="fill:#e8e8ff;fill-opacity:1;fill-rule:evenodd;stroke:none"
         id="path168" /><path
         d="m 478.445,3401.52 h -70.867 c 0,39.14 31.731,70.87 70.867,70.87"
         style="fill:#e8e8ff;fill-opacity:1;fill-rule:nonzero;stroke:none"
         id="path170" /><path
         d="m 407.578,3401.52 c 0,39.14 31.731,70.87 70.867,70.87"
         style="fill:none;stroke:#000000;stroke-width:28.346;stroke-linecap:butt;stroke-linejoin:round;stroke-miterlimit:10;stroke-dasharray:none;stroke-opacity:1"
         id="path172" /><path
         d="M 407.578,3401.52 V 3146.41"
         style="fill:none;stroke:#000000;stroke-width:28.346;stroke-linecap:butt;stroke-linejoin:round;stroke-miterlimit:10;stroke-dasharray:none;stroke-opacity:1"
         id="path174" /><path
         d="m 478.445,3146.41 v -70.87 c -39.136,0 -70.867,31.73 -70.867,70.87"
         style="fill:#e8e8ff;fill-opacity:1;fill-rule:nonzero;stroke:none"
         id="path176" /><path
         d="m 478.445,3075.54 c -39.136,0 -70.867,31.73 -70.867,70.87"
         style="fill:none;stroke:#000000;stroke-width:28.346;stroke-linecap:butt;stroke-linejoin:round;stroke-miterlimit:10;stroke-dasharray:none;stroke-opacity:1"
         id="path178" /><path
         d="M 478.445,3075.54 H 1527.25"
         style="fill:none;stroke:#000000;stroke-width:28.346;stroke-linecap:butt;stroke-linejoin:round;stroke-miterlimit:10;stroke-dasharray:none;stroke-opacity:1"
         id="path180" /><path
         d="m 1527.25,3146.41 h 70.86 c 0,-39.14 -31.73,-70.87 -70.86,-70.87"
         style="fill:#e8e8ff;fill-opacity:1;fill-rule:nonzero;stroke:none"
         id="path182" /><path
         d="m 1598.11,3146.41 c 0,-39.14 -31.73,-70.87 -70.86,-70.87"
         style="fill:none;stroke:#000000;stroke-width:28.346;stroke-linecap:butt;stroke-linejoin:round;stroke-miterlimit:10;stroke-dasharray:none;stroke-opacity:1"
         id="path184" /><path
         d="m 1598.11,3146.41 v 255.11"
         style="fill:none;stroke:#000000;stroke-width:28.346;stroke-linecap:butt;stroke-linejoin:round;stroke-miterlimit:10;stroke-dasharray:none;stroke-opacity:1"
         id="path186" /><path
         d="m 1527.25,3401.52 v 70.87 c 39.13,0 70.86,-31.73 70.86,-70.87"
         style="fill:#e8e8ff;fill-opacity:1;fill-rule:nonzero;stroke:none"
         id="path188" /><path
         d="m 1527.25,3472.39 c 39.13,0 70.86,-31.73 70.86,-70.87"
         style="fill:none;stroke:#000000;stroke-width:28.346;stroke-linecap:butt;stroke-linejoin:round;stroke-miterlimit:10;stroke-dasharray:none;stroke-opacity:1"
         id="path190" /><path
         d="M 1527.25,3472.39 H 478.445"
         style="fill:none;stroke:#000000;stroke-width:28.346;stroke-linecap:butt;stroke-linejoin:round;stroke-miterlimit:10;stroke-dasharray:none;stroke-opacity:1"
         id="path192" /><path
         d="m 1002.84,1902.02 v 192.75"
         style="fill:none;stroke:#000000;stroke-width:28.346;stroke-linecap:butt;stroke-linejoin:round;stroke-miterlimit:10;stroke-dasharray:none;stroke-opacity:1"
         id="path194" /><path
         d="m 1002.84,2094.77 21.27,-85.04 -21.27,21.26 -21.254,-21.26"
         style="fill:#000000;fill-opacity:1;fill-rule:evenodd;stroke:none"
         id="path196" /><path
         d="m 1002.84,2094.77 21.27,-85.04 -21.27,21.26 -21.254,-21.26 z"
         style="fill:none;stroke:#000000;stroke-width:28.346;stroke-linecap:butt;stroke-linejoin:miter;stroke-miterlimit:10;stroke-dasharray:none;stroke-opacity:1"
         id="path198" /><path
         d="m 1003.44,2336.32 v 221.33"
         style="fill:none;stroke:#000000;stroke-width:28.346;stroke-linecap:butt;stroke-linejoin:miter;stroke-miterlimit:10;stroke-dasharray:none;stroke-opacity:1"
         id="path200" /><path
         d="m 882.391,2678.7 c 66.851,0 121.049,-54.2 121.049,-121.05"
         style="fill:none;stroke:#000000;stroke-width:28.346;stroke-linecap:butt;stroke-linejoin:miter;stroke-miterlimit:10;stroke-dasharray:none;stroke-opacity:1"
         id="path202" /><path
         d="M 882.391,2678.7 H 180.813"
         style="fill:none;stroke:#000000;stroke-width:28.346;stroke-linecap:butt;stroke-linejoin:miter;stroke-miterlimit:10;stroke-dasharray:none;stroke-opacity:1"
         id="path204" /><path
         d="m 180.813,2678.7 c -78.274,0 -141.731,63.45 -141.731,141.73"
         style="fill:none;stroke:#000000;stroke-width:28.346;stroke-linecap:butt;stroke-linejoin:miter;stroke-miterlimit:10;stroke-dasharray:none;stroke-opacity:1"
         id="path206" /><path
         d="m 39.082,2820.43 v 1508"
         style="fill:none;stroke:#000000;stroke-width:28.346;stroke-linecap:butt;stroke-linejoin:miter;stroke-miterlimit:10;stroke-dasharray:none;stroke-opacity:1"
         id="path208" /><path
         d="m 39.082,4328.43 c 0,78.28 63.457,141.73 141.731,141.73"
         style="fill:none;stroke:#000000;stroke-width:28.346;stroke-linecap:butt;stroke-linejoin:miter;stroke-miterlimit:10;stroke-dasharray:none;stroke-opacity:1"
         id="path210" /><path
         d="M 180.813,4470.16 H 844.105"
         style="fill:none;stroke:#000000;stroke-width:28.346;stroke-linecap:butt;stroke-linejoin:miter;stroke-miterlimit:10;stroke-dasharray:none;stroke-opacity:1"
         id="path212" /><path
         d="m 844.105,4470.16 -85.035,-21.25 21.258,21.25 -21.258,21.27"
         style="fill:#000000;fill-opacity:1;fill-rule:evenodd;stroke:none"
         id="path214" /><path
         d="m 844.105,4470.16 -85.035,-21.25 21.258,21.25 -21.258,21.27 z"
         style="fill:none;stroke:#000000;stroke-width:28.346;stroke-linecap:butt;stroke-linejoin:miter;stroke-miterlimit:10;stroke-dasharray:none;stroke-opacity:1"
         id="path216" /><path
         d="M 1002.84,14.1719 V 453.535"
         style="fill:none;stroke:#000000;stroke-width:28.346;stroke-linecap:butt;stroke-linejoin:miter;stroke-miterlimit:10;stroke-dasharray:none;stroke-opacity:1"
         id="path218" /><path
         d="M 1002.84,453.535 1024.11,368.5 1002.84,389.758 981.586,368.5"
         style="fill:#000000;fill-opacity:1;fill-rule:evenodd;stroke:none"
         id="path220" /><path
         d="M 1002.84,453.535 1024.11,368.5 1002.84,389.758 981.586,368.5 Z"
         style="fill:none;stroke:#000000;stroke-width:28.346;stroke-linecap:butt;stroke-linejoin:miter;stroke-miterlimit:10;stroke-dasharray:none;stroke-opacity:1"
         id="path222" /><path
         d="m 611.191,3383.7 v -25.82 c -10.265,4.75 -19.957,8.28 -29.074,10.6 -9.117,2.32 -17.918,3.48 -26.402,3.48 -14.762,0 -26.141,-2.89 -34.133,-8.69 -7.996,-5.77 -11.992,-13.99 -11.992,-24.67 0,-8.95 2.652,-15.71 7.957,-20.28 5.328,-4.55 15.414,-8.23 30.25,-11.03 l 16.351,-3.41 c 20.192,-3.89 35.09,-10.74 44.7,-20.54 9.605,-9.8 14.41,-22.91 14.41,-39.34 0,-19.61 -6.504,-34.47 -19.508,-44.59 -13.004,-10.12 -32.059,-15.18 -57.164,-15.18 -9.461,0 -19.531,0.99 -30.211,2.97 -10.684,1.98 -21.746,4.9 -33.184,8.76 v 28.17 c 11,-6.21 21.766,-10.9 32.301,-14.05 10.535,-3.15 20.903,-4.73 31.094,-4.73 15.473,0 27.402,3.11 35.785,9.31 8.41,6.22 12.613,15.06 12.613,26.55 0,10.02 -3.015,17.86 -9.054,23.5 -6.039,5.68 -15.938,9.93 -29.7,12.76 l -16.5,3.3 c -20.191,4.04 -34.796,10.36 -43.816,18.96 -9.019,8.63 -13.531,20.62 -13.531,35.97 0,17.8 6.234,31.8 18.699,42.02 12.469,10.24 29.652,15.36 51.555,15.36 9.363,0 18.906,-0.78 28.636,-2.34 9.754,-1.57 19.727,-3.92 29.918,-7.04"
         style="fill:#000000;fill-opacity:1;fill-rule:nonzero;stroke:none"
         id="path224" /><path
         d="m 653.488,3339.11 h 24.676 L 709,3221.93 l 30.691,117.18 h 29.114 l 30.836,-117.18 30.691,117.18 h 24.676 l -39.27,-150.18 h -29.113 l -32.305,123.09 -32.449,-123.09 h -29.074 l -39.309,150.18"
         style="fill:#000000;fill-opacity:1;fill-rule:nonzero;stroke:none"
         id="path226" /><path
         d="m 896.539,3339.11 h 24.641 v -150.18 h -24.641 v 150.18 m 0,58.67 h 24.641 v -30.51 h -24.641 v 30.51"
         style="fill:#000000;fill-opacity:1;fill-rule:nonzero;stroke:none"
         id="path228" /><path
         d="m 1111.95,3215.84 v 55.22 h -44.25 v 21.12 h 71.06 v -86.54 c -10.47,-7.06 -22,-12.4 -34.62,-16.02 -12.59,-3.59 -26.03,-5.39 -40.33,-5.39 -31.29,0 -55.76,9.19 -73.408,27.57 -17.648,18.39 -26.472,43.98 -26.472,76.79 0,32.9 8.824,58.54 26.472,76.92 17.648,18.38 42.118,27.57 73.408,27.57 13.05,0 25.46,-1.58 37.22,-4.76 11.76,-3.18 22.6,-7.85 32.52,-14.01 v -28.16 c -10.02,8.56 -20.67,15 -31.94,19.32 -11.24,4.33 -23.07,6.49 -35.49,6.49 -24.49,0 -42.89,-6.99 -55.18,-20.97 -12.299,-13.96 -18.448,-34.76 -18.448,-62.4 0,-27.55 6.149,-48.32 18.448,-62.3 12.29,-13.96 30.67,-20.94 55.14,-20.94 9.58,0 18.13,0.85 25.63,2.53 7.51,1.71 14.25,4.37 20.24,7.96"
         style="fill:#000000;fill-opacity:1;fill-rule:nonzero;stroke:none"
         id="path230" /><path
         d="m 1192.13,3388.39 h 27.05 v -178.34 h 97.5 v -21.12 h -124.55 v 199.46"
         style="fill:#000000;fill-opacity:1;fill-rule:nonzero;stroke:none"
         id="path232" /><path
         d="m 1330.64,3388.39 h 27.21 v -122.25 c 0,-21.55 3.88,-37.08 11.66,-46.56 7.77,-9.49 20.37,-14.23 37.8,-14.23 17.36,0 29.92,4.74 37.69,14.23 7.78,9.48 11.66,25.01 11.66,46.56 v 122.25 h 27.21 v -125.62 c 0,-25.91 -6.46,-45.48 -19.4,-58.7 -12.9,-13.23 -31.96,-19.84 -57.16,-19.84 -25.27,0 -44.38,6.61 -57.31,19.84 -12.91,13.22 -19.36,32.79 -19.36,58.7 v 125.62"
         style="fill:#000000;fill-opacity:1;fill-rule:nonzero;stroke:none"
         id="path234" /><path
         d="m 322.539,3727.5 h 1360.61 v 396.844 H 322.539 Z"
         style="fill:#f0ffe0;fill-opacity:1;fill-rule:evenodd;stroke:none"
         id="path236" /><path
         d="m 251.676,3798.36 h 1502.34 v 255.117 H 251.676 Z"
         style="fill:#f0ffe0;fill-opacity:1;fill-rule:evenodd;stroke:none"
         id="path238" /><path
         d="m 322.539,4053.48 h -70.863 c 0,39.14 31.726,70.86 70.863,70.86"
         style="fill:#f0ffe0;fill-opacity:1;fill-rule:nonzero;stroke:none"
         id="path240" /><path
         d="m 251.676,4053.48 c 0,39.14 31.726,70.86 70.863,70.86"
         style="fill:none;stroke:#000000;stroke-width:28.346;stroke-linecap:butt;stroke-linejoin:round;stroke-miterlimit:10;stroke-dasharray:none;stroke-opacity:1"
         id="path242" /><path
         d="M 251.676,4053.48 V 3798.36"
         style="fill:none;stroke:#000000;stroke-width:28.346;stroke-linecap:butt;stroke-linejoin:round;stroke-miterlimit:10;stroke-dasharray:none;stroke-opacity:1"
         id="path244" /><path
         d="m 322.539,3798.36 v -70.86 c -39.137,0 -70.863,31.73 -70.863,70.86"
         style="fill:#f0ffe0;fill-opacity:1;fill-rule:nonzero;stroke:none"
         id="path246" /><path
         d="m 322.539,3727.5 c -39.137,0 -70.863,31.73 -70.863,70.86"
         style="fill:none;stroke:#000000;stroke-width:28.346;stroke-linecap:butt;stroke-linejoin:round;stroke-miterlimit:10;stroke-dasharray:none;stroke-opacity:1"
         id="path248" /><path
         d="M 322.539,3727.5 H 1683.15"
         style="fill:none;stroke:#000000;stroke-width:28.346;stroke-linecap:butt;stroke-linejoin:round;stroke-miterlimit:10;stroke-dasharray:none;stroke-opacity:1"
         id="path250" /><path
         d="m 1683.15,3798.36 h 70.87 c 0,-39.13 -31.73,-70.86 -70.87,-70.86"
         style="fill:#f0ffe0;fill-opacity:1;fill-rule:nonzero;stroke:none"
         id="path252" /><path
         d="m 1754.02,3798.36 c 0,-39.13 -31.73,-70.86 -70.87,-70.86"
         style="fill:none;stroke:#000000;stroke-width:28.346;stroke-linecap:butt;stroke-linejoin:round;stroke-miterlimit:10;stroke-dasharray:none;stroke-opacity:1"
         id="path254" /><path
         d="m 1754.02,3798.36 v 255.12"
         style="fill:none;stroke:#000000;stroke-width:28.346;stroke-linecap:butt;stroke-linejoin:round;stroke-miterlimit:10;stroke-dasharray:none;stroke-opacity:1"
         id="path256" /><path
         d="m 1683.15,4053.48 v 70.86 c 39.14,0 70.87,-31.72 70.87,-70.86"
         style="fill:#f0ffe0;fill-opacity:1;fill-rule:nonzero;stroke:none"
         id="path258" /><path
         d="m 1683.15,4124.34 c 39.14,0 70.87,-31.72 70.87,-70.86"
         style="fill:none;stroke:#000000;stroke-width:28.346;stroke-linecap:butt;stroke-linejoin:round;stroke-miterlimit:10;stroke-dasharray:none;stroke-opacity:1"
         id="path260" /><path
         d="M 1683.15,4124.34 H 322.539"
         style="fill:none;stroke:#000000;stroke-width:28.346;stroke-linecap:butt;stroke-linejoin:round;stroke-miterlimit:10;stroke-dasharray:none;stroke-opacity:1"
         id="path262" /><path
         d="m 444.418,3919.95 c 5.82,-1.93 11.465,-6.07 16.941,-12.43 5.5,-6.35 11.024,-15.08 16.575,-26.18 l 27.461,-54.63 H 476.32 l -25.629,51.26 c -6.601,13.4 -13.007,22.28 -19.214,26.66 -6.211,4.37 -14.68,6.56 -25.411,6.56 h -29.515 v -84.48 h -27.059 v 199.47 h 61.121 c 22.879,0 39.953,-4.79 51.223,-14.34 11.269,-9.56 16.902,-23.98 16.902,-43.27 0,-12.59 -2.933,-23.03 -8.8,-31.35 -5.84,-8.28 -14.348,-14.04 -25.52,-17.27 m -67.867,85.1 v -72.74 h 34.062 c 13.055,0 22.903,3.08 29.555,9.24 6.672,6.18 10.008,15.28 10.008,27.28 0,11.98 -3.336,21.01 -10.008,27.1 -6.652,6.08 -16.5,9.12 -29.555,9.12 h -34.062"
         style="fill:#000000;fill-opacity:1;fill-rule:nonzero;stroke:none"
         id="path264" /><path
         d="m 544.188,4026.18 h 40.332 l 51.078,-136.4 51.367,136.4 h 40.336 v -199.47 h -26.403 v 175.04 l -51.625,-137.49 h -27.207 l -51.589,137.49 v -175.04 h -26.289 v 199.47"
         style="fill:#000000;fill-opacity:1;fill-rule:nonzero;stroke:none"
         id="path266" /><path
         d="m 905.582,4021.48 v -25.81 c -10.266,4.74 -19.957,8.27 -29.074,10.6 -9.117,2.32 -17.918,3.48 -26.403,3.48 -14.761,0 -26.14,-2.9 -34.136,-8.69 -7.992,-5.77 -11.989,-13.99 -11.989,-24.68 0,-8.94 2.653,-15.7 7.958,-20.27 5.328,-4.55 15.41,-8.23 30.25,-11.04 l 16.351,-3.41 c 20.191,-3.89 35.09,-10.73 44.695,-20.53 9.61,-9.81 14.411,-22.92 14.411,-39.34 0,-19.61 -6.5,-34.47 -19.504,-44.59 -13.004,-10.12 -32.059,-15.18 -57.164,-15.18 -9.461,0 -19.532,0.99 -30.211,2.97 -10.684,1.98 -21.746,4.9 -33.184,8.76 v 28.16 c 11,-6.21 21.766,-10.89 32.301,-14.04 10.535,-3.16 20.902,-4.73 31.094,-4.73 15.472,0 27.402,3.1 35.785,9.31 8.41,6.21 12.613,15.06 12.613,26.55 0,10.02 -3.016,17.85 -9.055,23.5 -6.039,5.67 -15.937,9.93 -29.699,12.76 l -16.5,3.3 c -20.191,4.03 -34.797,10.35 -43.816,18.96 -9.02,8.62 -13.532,20.62 -13.532,35.96 0,17.8 6.235,31.81 18.7,42.02 12.468,10.25 29.652,15.37 51.554,15.37 9.364,0 18.907,-0.78 28.637,-2.35 9.754,-1.56 19.727,-3.91 29.918,-7.04"
         style="fill:#000000;fill-opacity:1;fill-rule:nonzero;stroke:none"
         id="path268" /><path
         d="m 963.316,4026.18 h 36.446 l 88.768,-166.87 v 166.87 h 26.26 v -199.47 h -36.45 l -88.735,166.87 v -166.87 h -26.289 v 199.47"
         style="fill:#000000;fill-opacity:1;fill-rule:nonzero;stroke:none"
         id="path270" /><path
         d="m 1229.97,3960.47 c -13.23,0 -23.69,-5.23 -31.39,-15.69 -7.67,-10.47 -11.51,-24.79 -11.51,-42.98 0,-18.18 3.81,-32.51 11.44,-42.97 7.65,-10.46 18.13,-15.69 31.46,-15.69 13.15,0 23.56,5.24 31.24,15.73 7.7,10.51 11.55,24.82 11.55,42.93 0,18.02 -3.85,32.29 -11.55,42.83 -7.68,10.56 -18.09,15.84 -31.24,15.84 m 0.03,21.12 c 21.44,0 38.29,-7.07 50.53,-21.2 12.25,-14.1 18.37,-33.63 18.37,-58.59 0,-24.88 -6.12,-44.4 -18.37,-58.55 -12.24,-14.16 -29.09,-21.23 -50.53,-21.23 -21.55,0 -38.43,7.07 -50.63,21.23 -12.2,14.15 -18.3,33.67 -18.3,58.55 0,24.96 6.1,44.49 18.3,58.59 12.2,14.13 29.08,21.2 50.63,21.2"
         style="fill:#000000;fill-opacity:1;fill-rule:nonzero;stroke:none"
         id="path272" /><path
         d="m 1430.16,3953.43 c -2.77,2.42 -5.78,4.19 -9.06,5.32 -3.25,1.14 -6.84,1.72 -10.78,1.72 -13.96,0 -24.68,-4.59 -32.16,-13.79 -7.45,-9.16 -11.18,-22.33 -11.18,-39.49 v -80.48 h -24.78 v 150.18 h 24.78 v -21.11 c 5.18,8.72 11.93,15.2 20.24,19.43 8.33,4.25 18.44,6.38 30.32,6.38 1.71,0 3.6,-0.2 5.65,-0.59 2.05,-0.39 4.33,-0.98 6.82,-1.76 l 0.15,-25.81"
         style="fill:#000000;fill-opacity:1;fill-rule:nonzero;stroke:none"
         id="path274" /><path
         d="m 1569.78,3950.17 c 6.16,10.73 13.53,18.65 22.11,23.76 8.58,5.11 18.68,7.66 30.32,7.66 15.62,0 27.67,-5.44 36.15,-16.32 8.51,-10.85 12.77,-26.3 12.77,-46.34 v -92.22 h -24.79 v 91.41 c 0,14.35 -2.56,24.99 -7.67,31.93 -5.08,6.95 -12.85,10.42 -23.31,10.42 -12.79,0 -22.9,-4.24 -30.33,-12.72 -7.4,-8.48 -11.11,-20.05 -11.11,-34.69 v -86.35 h -24.79 v 91.41 c 0,14.42 -2.55,25.08 -7.66,31.97 -5.08,6.92 -12.94,10.38 -23.58,10.38 -12.61,0 -22.63,-4.27 -30.06,-12.8 -7.41,-8.53 -11.11,-20.06 -11.11,-34.61 v -86.35 h -24.79 v 150.18 h 24.79 v -21.11 c 5.62,8.82 12.37,15.32 20.24,19.5 7.87,4.21 17.22,6.31 28.05,6.31 10.9,0 20.17,-2.69 27.79,-8.07 7.65,-5.35 13.31,-13.14 16.98,-23.35"
         style="fill:#000000;fill-opacity:1;fill-rule:nonzero;stroke:none"
         id="path276" /><path
         d="m 1002.84,2565.31 v 436.53"
         style="fill:none;stroke:#000000;stroke-width:28.346;stroke-linecap:butt;stroke-linejoin:round;stroke-miterlimit:10;stroke-dasharray:none;stroke-opacity:1"
         id="path278" /><path
         d="m 1002.84,3001.84 21.27,-85.04 -21.27,21.26 -21.254,-21.26"
         style="fill:#000000;fill-opacity:1;fill-rule:evenodd;stroke:none"
         id="path280" /><path
         d="m 1002.84,3001.84 21.27,-85.04 -21.27,21.26 -21.254,-21.26 z"
         style="fill:none;stroke:#000000;stroke-width:28.346;stroke-linecap:butt;stroke-linejoin:miter;stroke-miterlimit:10;stroke-dasharray:none;stroke-opacity:1"
         id="path282" /><path
         d="m 1002.84,3472.39 v 184.24"
         style="fill:none;stroke:#000000;stroke-width:28.346;stroke-linecap:butt;stroke-linejoin:miter;stroke-miterlimit:10;stroke-dasharray:none;stroke-opacity:1"
         id="path284" /><path
         d="m 1002.84,3656.63 21.27,-85.03 -21.27,21.26 -21.254,-21.26"
         style="fill:#000000;fill-opacity:1;fill-rule:evenodd;stroke:none"
         id="path286" /><path
         d="m 1002.84,3656.63 21.27,-85.03 -21.27,21.26 -21.254,-21.26 z"
         style="fill:none;stroke:#000000;stroke-width:28.346;stroke-linecap:butt;stroke-linejoin:miter;stroke-miterlimit:10;stroke-dasharray:none;stroke-opacity:1"
         id="path288" /><path
         d="m 1085.65,4467.93 c 0,-46.97 -38.07,-85.04 -85.04,-85.04 -46.962,0 -85.036,38.07 -85.036,85.04 0,46.96 38.074,85.03 85.036,85.03 46.97,0 85.04,-38.07 85.04,-85.03"
         style="fill:#ffffff;fill-opacity:1;fill-rule:nonzero;stroke:none"
         id="path290" /><path
         d="m 1085.65,4467.93 c 0,-46.97 -38.07,-85.04 -85.04,-85.04 -46.962,0 -85.036,38.07 -85.036,85.04 0,46.96 38.074,85.03 85.036,85.03 46.97,0 85.04,-38.07 85.04,-85.03 z"
         style="fill:none;stroke:#000000;stroke-width:28.346;stroke-linecap:butt;stroke-linejoin:miter;stroke-miterlimit:10;stroke-dasharray:none;stroke-opacity:1"
         id="path292" /><path
         d="m 1005.23,4505.97 v -37.55 h 38.32 v -11.73 h -38.32 v -37.55 h -11.542 v 37.55 h -38.282 v 11.73 h 38.282 v 37.55 h 11.542"
         style="fill:#000000;fill-opacity:1;fill-rule:nonzero;stroke:none"
         id="path294" /><path
         d="m 1002.84,4124.34 v 187.09"
         style="fill:none;stroke:#000000;stroke-width:28.346;stroke-linecap:butt;stroke-linejoin:miter;stroke-miterlimit:10;stroke-dasharray:none;stroke-opacity:1"
         id="path296" /><path
         d="m 1002.84,4311.43 21.27,-85.04 -21.27,21.26 -21.254,-21.26"
         style="fill:#000000;fill-opacity:1;fill-rule:evenodd;stroke:none"
         id="path298" /><path
         d="m 1002.84,4311.43 21.27,-85.04 -21.27,21.26 -21.254,-21.26 z"
         style="fill:none;stroke:#000000;stroke-width:28.346;stroke-linecap:butt;stroke-linejoin:miter;stroke-miterlimit:10;stroke-dasharray:none;stroke-opacity:1"
         id="path300" /><path
         d="m 1000.01,4560.87 2.83,158.74"
         style="fill:none;stroke:#000000;stroke-width:28.346;stroke-linecap:butt;stroke-linejoin:miter;stroke-miterlimit:10;stroke-dasharray:none;stroke-opacity:1"
         id="path302" /><path
         d="m 1002.84,4719.61 19.74,-85.4 -20.87,21.63 -21.64,-20.88"
         style="fill:#000000;fill-opacity:1;fill-rule:evenodd;stroke:none"
         id="path304" /><path
         d="m 1002.84,4719.61 19.74,-85.4 -20.87,21.63 -21.64,-20.88 z"
         style="fill:none;stroke:#000000;stroke-width:28.346;stroke-linecap:butt;stroke-linejoin:miter;stroke-miterlimit:10;stroke-dasharray:none;stroke-opacity:1"
         id="path306" /></g></g></svg>
