<?xml version="1.0" encoding="UTF-8" standalone="no"?>
<!-- Created with Inkscape (http://www.inkscape.org/) -->

<svg
   version="1.1"
   id="svg2"
   xml:space="preserve"
   width="201.33333"
   height="454.66666"
   viewBox="0 0 201.33333 454.66666"
   sodipodi:docname="mha.svg"
   inkscape:version="1.1.2 (0a00cf5339, 2022-02-04)"
   xmlns:inkscape="http://www.inkscape.org/namespaces/inkscape"
   xmlns:sodipodi="http://sodipodi.sourceforge.net/DTD/sodipodi-0.dtd"
   xmlns="http://www.w3.org/2000/svg"
   xmlns:svg="http://www.w3.org/2000/svg"><defs
     id="defs6" /><sodipodi:namedview
     id="namedview4"
     pagecolor="#ffffff"
     bordercolor="#666666"
     borderopacity="1.0"
     inkscape:pageshadow="2"
     inkscape:pageopacity="0.0"
     inkscape:pagecheckerboard="0"
     showgrid="false"
     inkscape:zoom="1.5989736"
     inkscape:cx="-37.524071"
     inkscape:cy="227.02063"
     inkscape:window-width="1920"
     inkscape:window-height="1025"
     inkscape:window-x="0"
     inkscape:window-y="27"
     inkscape:window-maximized="1"
     inkscape:current-layer="g8" /><g
     id="g8"
     inkscape:groupmode="layer"
     inkscape:label="ink_ext_XXXXXX"
     transform="matrix(1.3333333,0,0,-1.3333333,0,454.66667)"><g
       id="g10"
       transform="scale(0.1)"><path
         d="M 751.168,14.1719 V 439.363"
         style="fill:none;stroke:#000000;stroke-width:28.346;stroke-linecap:butt;stroke-linejoin:miter;stroke-miterlimit:10;stroke-dasharray:none;stroke-opacity:1"
         id="path12" /><path
         d="M 751.168,439.363 772.43,354.324 751.168,375.586 729.91,354.324"
         style="fill:#000000;fill-opacity:1;fill-rule:evenodd;stroke:none"
         id="path14" /><path
         d="M 751.168,439.363 772.43,354.324 751.168,375.586 729.91,354.324 Z"
         style="fill:none;stroke:#000000;stroke-width:28.346;stroke-linecap:butt;stroke-linejoin:miter;stroke-miterlimit:10;stroke-dasharray:none;stroke-opacity:1"
         id="path16" /><path
         d="m 141.73,2168.47 h 1247.22 v 396.844 H 141.73 Z"
         style="fill:#fff4f4;fill-opacity:1;fill-rule:evenodd;stroke:none"
         id="path18" /><path
         d="m 70.8633,2239.34 h 1388.96 v 255.113 H 70.8633 Z"
         style="fill:#fff4f4;fill-opacity:1;fill-rule:evenodd;stroke:none"
         id="path20" /><path
         d="M 141.73,2494.45 H 70.8633 c 0,39.14 31.7307,70.86 70.8667,70.86"
         style="fill:#fff4f4;fill-opacity:1;fill-rule:nonzero;stroke:none"
         id="path22" /><path
         d="m 70.8633,2494.45 c 0,39.14 31.7307,70.86 70.8667,70.86"
         style="fill:none;stroke:#000000;stroke-width:28.346;stroke-linecap:butt;stroke-linejoin:round;stroke-miterlimit:10;stroke-dasharray:none;stroke-opacity:1"
         id="path24" /><path
         d="M 70.8633,2494.45 V 2239.34"
         style="fill:none;stroke:#000000;stroke-width:28.346;stroke-linecap:butt;stroke-linejoin:round;stroke-miterlimit:10;stroke-dasharray:none;stroke-opacity:1"
         id="path26" /><path
         d="m 141.73,2239.34 v -70.87 c -39.136,0 -70.8667,31.73 -70.8667,70.87"
         style="fill:#fff4f4;fill-opacity:1;fill-rule:nonzero;stroke:none"
         id="path28" /><path
         d="m 141.73,2168.47 c -39.136,0 -70.8667,31.73 -70.8667,70.87"
         style="fill:none;stroke:#000000;stroke-width:28.346;stroke-linecap:butt;stroke-linejoin:round;stroke-miterlimit:10;stroke-dasharray:none;stroke-opacity:1"
         id="path30" /><path
         d="M 141.73,2168.47 H 1388.95"
         style="fill:none;stroke:#000000;stroke-width:28.346;stroke-linecap:butt;stroke-linejoin:round;stroke-miterlimit:10;stroke-dasharray:none;stroke-opacity:1"
         id="path32" /><path
         d="m 1388.95,2239.34 h 70.87 c 0,-39.14 -31.73,-70.87 -70.87,-70.87"
         style="fill:#fff4f4;fill-opacity:1;fill-rule:nonzero;stroke:none"
         id="path34" /><path
         d="m 1459.82,2239.34 c 0,-39.14 -31.73,-70.87 -70.87,-70.87"
         style="fill:none;stroke:#000000;stroke-width:28.346;stroke-linecap:butt;stroke-linejoin:round;stroke-miterlimit:10;stroke-dasharray:none;stroke-opacity:1"
         id="path36" /><path
         d="m 1459.82,2239.34 v 255.11"
         style="fill:none;stroke:#000000;stroke-width:28.346;stroke-linecap:butt;stroke-linejoin:round;stroke-miterlimit:10;stroke-dasharray:none;stroke-opacity:1"
         id="path38" /><path
         d="m 1388.95,2494.45 v 70.86 c 39.14,0 70.87,-31.72 70.87,-70.86"
         style="fill:#fff4f4;fill-opacity:1;fill-rule:nonzero;stroke:none"
         id="path40" /><path
         d="m 1388.95,2565.31 c 39.14,0 70.87,-31.72 70.87,-70.86"
         style="fill:none;stroke:#000000;stroke-width:28.346;stroke-linecap:butt;stroke-linejoin:round;stroke-miterlimit:10;stroke-dasharray:none;stroke-opacity:1"
         id="path42" /><path
         d="M 1388.95,2565.31 H 141.73"
         style="fill:none;stroke:#000000;stroke-width:28.346;stroke-linecap:butt;stroke-linejoin:round;stroke-miterlimit:10;stroke-dasharray:none;stroke-opacity:1"
         id="path44" /><path
         d="m 529.594,2448.28 v -25.82 c -10.266,4.75 -19.961,8.28 -29.078,10.6 -9.118,2.32 -17.918,3.49 -26.399,3.49 -14.765,0 -26.144,-2.9 -34.137,-8.69 -7.992,-5.77 -11.988,-14 -11.988,-24.68 0,-8.95 2.653,-15.71 7.953,-20.28 5.332,-4.54 15.414,-8.22 30.25,-11.03 l 16.356,-3.41 c 20.191,-3.89 35.09,-10.73 44.695,-20.54 9.606,-9.8 14.41,-22.91 14.41,-39.34 0,-19.6 -6.504,-34.47 -19.508,-44.59 -13.003,-10.11 -32.058,-15.18 -57.16,-15.18 -9.461,0 -19.531,0.99 -30.215,2.98 -10.683,1.98 -21.742,4.89 -33.183,8.76 v 28.16 c 11,-6.21 21.769,-10.89 32.305,-14.05 10.535,-3.15 20.898,-4.73 31.093,-4.73 15.473,0 27.403,3.11 35.785,9.32 8.411,6.21 12.614,15.05 12.614,26.54 0,10.03 -3.02,17.86 -9.059,23.51 -6.035,5.67 -15.937,9.92 -29.699,12.75 l -16.5,3.31 c -20.191,4.03 -34.797,10.35 -43.816,18.95 -9.02,8.63 -13.528,20.62 -13.528,35.97 0,17.8 6.231,31.81 18.699,42.02 12.465,10.24 29.649,15.36 51.551,15.36 9.363,0 18.91,-0.78 28.637,-2.34 9.754,-1.57 19.726,-3.91 29.922,-7.04"
         style="fill:#000000;fill-opacity:1;fill-rule:nonzero;stroke:none"
         id="path46" /><path
         d="m 614.387,2431.85 v -157.22 h 32.742 c 27.621,0 47.836,6.32 60.644,18.95 12.836,12.64 19.25,32.6 19.25,59.88 0,27.08 -6.414,46.92 -19.25,59.51 -12.808,12.59 -33.023,18.88 -60.644,18.88 h -32.742 m -27.063,21.12 h 55.625 c 38.793,0 67.258,-8.04 85.395,-24.13 18.164,-16.05 27.242,-41.2 27.242,-75.42 0,-34.37 -9.117,-59.62 -27.352,-75.75 -18.234,-16.11 -46.664,-24.16 -85.285,-24.16 h -55.625 v 199.46"
         style="fill:#000000;fill-opacity:1;fill-rule:nonzero;stroke:none"
         id="path48" /><path
         d="m 829.613,2431.85 v -77.44 h 34.063 c 12.613,0 22.355,3.36 29.222,10.09 6.895,6.72 10.34,16.29 10.34,28.71 0,12.32 -3.445,21.84 -10.34,28.56 -6.867,6.72 -16.609,10.08 -29.222,10.08 h -34.063 m -27.058,21.12 h 61.121 c 22.441,0 39.406,-5.07 50.894,-15.22 11.489,-10.14 17.231,-24.99 17.231,-44.54 0,-19.76 -5.742,-34.68 -17.231,-44.77 -11.488,-10.1 -28.453,-15.15 -50.894,-15.15 h -34.063 v -79.78 h -27.058 v 199.46"
         style="fill:#000000;fill-opacity:1;fill-rule:nonzero;stroke:none"
         id="path50" /><path
         d="m 1020.23,2426.21 -36.699,-99.96 h 73.589 l -36.89,99.96 m -15.25,26.76 h 30.69 l 76.27,-199.46 h -28.16 l -18.23,51.62 h -90.195 l -18.261,-51.62 H 928.57 l 76.41,199.46"
         style="fill:#000000;fill-opacity:1;fill-rule:nonzero;stroke:none"
         id="path52" /><path
         d="M 240.941,439.363 V 329.418"
         style="fill:none;stroke:#000000;stroke-width:28.346;stroke-linecap:butt;stroke-linejoin:miter;stroke-miterlimit:10;stroke-dasharray:none;stroke-opacity:1"
         id="path54" /><path
         d="m 301.07,269.285 c -33.207,0 -60.129,26.926 -60.129,60.133"
         style="fill:none;stroke:#000000;stroke-width:28.346;stroke-linecap:butt;stroke-linejoin:miter;stroke-miterlimit:10;stroke-dasharray:none;stroke-opacity:1"
         id="path56" /><path
         d="m 301.07,269.285 h 900.2"
         style="fill:none;stroke:#000000;stroke-width:28.346;stroke-linecap:butt;stroke-linejoin:miter;stroke-miterlimit:10;stroke-dasharray:none;stroke-opacity:1"
         id="path58" /><path
         d="m 1261.4,329.418 c 0,-33.207 -26.93,-60.133 -60.13,-60.133"
         style="fill:none;stroke:#000000;stroke-width:28.346;stroke-linecap:butt;stroke-linejoin:miter;stroke-miterlimit:10;stroke-dasharray:none;stroke-opacity:1"
         id="path60" /><path
         d="M 1261.4,329.418 V 439.363"
         style="fill:none;stroke:#000000;stroke-width:28.346;stroke-linecap:butt;stroke-linejoin:miter;stroke-miterlimit:10;stroke-dasharray:none;stroke-opacity:1"
         id="path62" /><path
         d="m 240.941,439.363 21.258,-85.039 -21.258,21.262 -21.261,-21.262"
         style="fill:#000000;fill-opacity:1;fill-rule:evenodd;stroke:none"
         id="path64" /><path
         d="m 240.941,439.363 21.258,-85.039 -21.258,21.262 -21.261,-21.262 z"
         style="fill:none;stroke:#000000;stroke-width:28.346;stroke-linecap:butt;stroke-linejoin:miter;stroke-miterlimit:10;stroke-dasharray:none;stroke-opacity:1"
         id="path66" /><path
         d="m 1261.4,439.363 21.26,-85.039 -21.26,21.262 -21.26,-21.262"
         style="fill:#000000;fill-opacity:1;fill-rule:evenodd;stroke:none"
         id="path68" /><path
         d="m 1261.4,439.363 21.26,-85.039 -21.26,21.262 -21.26,-21.262 z"
         style="fill:none;stroke:#000000;stroke-width:28.346;stroke-linecap:butt;stroke-linejoin:miter;stroke-miterlimit:10;stroke-dasharray:none;stroke-opacity:1"
         id="path70" /><path
         d="m 85.0391,496.055 h 311.805 V 892.899 H 85.0391 Z"
         style="fill:#f0ffe0;fill-opacity:1;fill-rule:evenodd;stroke:none"
         id="path72" /><path
         d="m 14.1719,566.922 h 453.539 V 822.035 H 14.1719 Z"
         style="fill:#f0ffe0;fill-opacity:1;fill-rule:evenodd;stroke:none"
         id="path74" /><path
         d="M 85.0391,822.035 H 14.1719 c 0,39.137 31.7304,70.863 70.8672,70.863"
         style="fill:#f0ffe0;fill-opacity:1;fill-rule:nonzero;stroke:none"
         id="path76" /><path
         d="m 14.1719,822.035 c 0,39.137 31.7304,70.863 70.8672,70.863"
         style="fill:none;stroke:#000000;stroke-width:28.346;stroke-linecap:butt;stroke-linejoin:round;stroke-miterlimit:10;stroke-dasharray:none;stroke-opacity:1"
         id="path78" /><path
         d="M 14.1719,822.035 V 566.922"
         style="fill:none;stroke:#000000;stroke-width:28.346;stroke-linecap:butt;stroke-linejoin:round;stroke-miterlimit:10;stroke-dasharray:none;stroke-opacity:1"
         id="path80" /><path
         d="m 85.0391,566.922 v -70.867 c -39.1368,0 -70.8672,31.73 -70.8672,70.867"
         style="fill:#f0ffe0;fill-opacity:1;fill-rule:nonzero;stroke:none"
         id="path82" /><path
         d="m 85.0391,496.055 c -39.1368,0 -70.8672,31.73 -70.8672,70.867"
         style="fill:none;stroke:#000000;stroke-width:28.346;stroke-linecap:butt;stroke-linejoin:round;stroke-miterlimit:10;stroke-dasharray:none;stroke-opacity:1"
         id="path84" /><path
         d="M 85.0391,496.055 H 396.844"
         style="fill:none;stroke:#000000;stroke-width:28.346;stroke-linecap:butt;stroke-linejoin:round;stroke-miterlimit:10;stroke-dasharray:none;stroke-opacity:1"
         id="path86" /><path
         d="m 396.844,566.922 h 70.863 c 0,-39.137 -31.727,-70.867 -70.863,-70.867"
         style="fill:#f0ffe0;fill-opacity:1;fill-rule:nonzero;stroke:none"
         id="path88" /><path
         d="m 467.707,566.922 c 0,-39.137 -31.727,-70.867 -70.863,-70.867"
         style="fill:none;stroke:#000000;stroke-width:28.346;stroke-linecap:butt;stroke-linejoin:round;stroke-miterlimit:10;stroke-dasharray:none;stroke-opacity:1"
         id="path90" /><path
         d="M 467.711,566.922 V 822.035"
         style="fill:none;stroke:#000000;stroke-width:28.346;stroke-linecap:butt;stroke-linejoin:round;stroke-miterlimit:10;stroke-dasharray:none;stroke-opacity:1"
         id="path92" /><path
         d="m 396.844,822.035 v 70.863 c 39.136,0 70.863,-31.726 70.863,-70.863"
         style="fill:#f0ffe0;fill-opacity:1;fill-rule:nonzero;stroke:none"
         id="path94" /><path
         d="m 396.844,892.898 c 39.136,0 70.863,-31.726 70.863,-70.863"
         style="fill:none;stroke:#000000;stroke-width:28.346;stroke-linecap:butt;stroke-linejoin:round;stroke-miterlimit:10;stroke-dasharray:none;stroke-opacity:1"
         id="path96" /><path
         d="M 396.844,892.898 H 85.0391"
         style="fill:none;stroke:#000000;stroke-width:28.346;stroke-linecap:butt;stroke-linejoin:round;stroke-miterlimit:10;stroke-dasharray:none;stroke-opacity:1"
         id="path98" /><path
         d="M 232.34,609.438 H 210.375 L 196.152,771.836 118.676,609.438 H 96.6758 L 80.3203,794.824 H 60.4844 l 2.8242,14.078 h 73.0394 l -2.825,-14.078 h -24.894 l 12.98,-147.547 77.11,161.625 h 21.703 l 14.484,-163.347 71.059,149.269 h -23.063 l 2.825,14.078 h 57.64 l -2.824,-14.078 H 320.816 L 232.34,609.438"
         style="fill:#000000;fill-opacity:1;fill-rule:nonzero;stroke:none"
         id="path100" /><path
         d="m 326.34,550.512 c -17.551,0 -30.508,5.402 -38.867,16.207 -5.77,7.527 -8.653,16.89 -8.653,28.086 0,4.715 0.512,9.765 1.539,15.14 1.786,9.266 4.782,17.539 8.985,24.825 4.226,7.308 9.754,13.824 16.574,19.543 5.988,5.011 12.453,8.789 19.395,11.328 6.968,2.543 14.398,3.816 22.292,3.816 16.622,0 28.981,-5.453 37.071,-16.355 5.672,-7.625 8.508,-16.977 8.508,-28.047 0,-4.696 -0.516,-9.731 -1.543,-15.11 -2.957,-15.152 -9.274,-27.89 -18.953,-38.207 -9.657,-10.312 -21.524,-16.949 -35.606,-19.906 2.102,-3.426 4.961,-5.953 8.582,-7.59 3.641,-1.64 8.25,-2.457 13.82,-2.457 h 19.215 l -2.785,-14.226 h -8.984 c -13.567,0 -23.16,2.101 -28.785,6.304 -5.524,4.203 -9.457,9.754 -11.805,16.649 m -0.332,8.211 c 12.543,0 22.855,4.316 30.949,12.945 8.09,8.629 13.773,21.387 17.047,38.277 1.32,6.969 1.98,13.239 1.98,18.813 0,7.918 -1.379,14.422 -4.14,19.504 -4.696,8.629 -13.313,12.945 -25.852,12.945 -12.59,0 -22.929,-4.316 -31.019,-12.945 -8.09,-8.602 -13.774,-21.375 -17.051,-38.317 -1.32,-6.918 -1.981,-13.16 -1.981,-18.734 0,-7.945 1.383,-14.473 4.145,-19.582 4.695,-8.602 13.336,-12.906 25.922,-12.906"
         style="fill:#000000;fill-opacity:1;fill-rule:nonzero;stroke:none"
         id="path102" /><path
         d="M 595.266,496.055 H 907.071 V 892.899 H 595.266 Z"
         style="fill:#f0ffe0;fill-opacity:1;fill-rule:evenodd;stroke:none"
         id="path104" /><path
         d="M 524.402,566.922 H 977.937 V 822.035 H 524.402 Z"
         style="fill:#f0ffe0;fill-opacity:1;fill-rule:evenodd;stroke:none"
         id="path106" /><path
         d="m 595.266,822.035 h -70.864 c 0,39.137 31.727,70.863 70.864,70.863"
         style="fill:#f0ffe0;fill-opacity:1;fill-rule:nonzero;stroke:none"
         id="path108" /><path
         d="m 524.402,822.035 c 0,39.137 31.727,70.863 70.864,70.863"
         style="fill:none;stroke:#000000;stroke-width:28.346;stroke-linecap:butt;stroke-linejoin:round;stroke-miterlimit:10;stroke-dasharray:none;stroke-opacity:1"
         id="path110" /><path
         d="M 524.402,822.035 V 566.922"
         style="fill:none;stroke:#000000;stroke-width:28.346;stroke-linecap:butt;stroke-linejoin:round;stroke-miterlimit:10;stroke-dasharray:none;stroke-opacity:1"
         id="path112" /><path
         d="m 595.266,566.922 v -70.867 c -39.137,0 -70.864,31.73 -70.864,70.867"
         style="fill:#f0ffe0;fill-opacity:1;fill-rule:nonzero;stroke:none"
         id="path114" /><path
         d="m 595.266,496.055 c -39.137,0 -70.864,31.73 -70.864,70.867"
         style="fill:none;stroke:#000000;stroke-width:28.346;stroke-linecap:butt;stroke-linejoin:round;stroke-miterlimit:10;stroke-dasharray:none;stroke-opacity:1"
         id="path116" /><path
         d="M 595.266,496.055 H 907.07"
         style="fill:none;stroke:#000000;stroke-width:28.346;stroke-linecap:butt;stroke-linejoin:round;stroke-miterlimit:10;stroke-dasharray:none;stroke-opacity:1"
         id="path118" /><path
         d="m 907.07,566.922 h 70.868 c 0,-39.137 -31.731,-70.867 -70.868,-70.867"
         style="fill:#f0ffe0;fill-opacity:1;fill-rule:nonzero;stroke:none"
         id="path120" /><path
         d="m 977.938,566.922 c 0,-39.137 -31.731,-70.867 -70.868,-70.867"
         style="fill:none;stroke:#000000;stroke-width:28.346;stroke-linecap:butt;stroke-linejoin:round;stroke-miterlimit:10;stroke-dasharray:none;stroke-opacity:1"
         id="path122" /><path
         d="M 977.938,566.922 V 822.035"
         style="fill:none;stroke:#000000;stroke-width:28.346;stroke-linecap:butt;stroke-linejoin:round;stroke-miterlimit:10;stroke-dasharray:none;stroke-opacity:1"
         id="path124" /><path
         d="m 907.07,822.035 v 70.863 c 39.137,0 70.868,-31.726 70.868,-70.863"
         style="fill:#f0ffe0;fill-opacity:1;fill-rule:nonzero;stroke:none"
         id="path126" /><path
         d="m 907.07,892.898 c 39.137,0 70.868,-31.726 70.868,-70.863"
         style="fill:none;stroke:#000000;stroke-width:28.346;stroke-linecap:butt;stroke-linejoin:round;stroke-miterlimit:10;stroke-dasharray:none;stroke-opacity:1"
         id="path128" /><path
         d="M 907.07,892.898 H 595.266"
         style="fill:none;stroke:#000000;stroke-width:28.346;stroke-linecap:butt;stroke-linejoin:round;stroke-miterlimit:10;stroke-dasharray:none;stroke-opacity:1"
         id="path130" /><path
         d="M 742.566,609.438 H 720.605 L 706.379,771.836 628.902,609.438 h -22 l -16.351,185.386 h -19.836 l 2.82,14.078 h 73.039 l -2.82,-14.078 h -24.899 l 12.981,-147.547 77.109,161.625 h 21.707 l 14.481,-163.347 71.062,149.269 h -23.062 l 2.82,14.078 h 57.641 L 850.77,794.824 H 831.043 L 742.566,609.438"
         style="fill:#000000;fill-opacity:1;fill-rule:nonzero;stroke:none"
         id="path132" /><path
         d="m 777.133,552.746 1.539,7.039 h 14.594 l 19.101,100.906 h -14.594 l 1.614,7.043 h 44.769 l -1.613,-7.043 h -14.594 l -8.429,-44.546 57.785,44.546 h -12.43 l 1.613,7.043 h 38.094 l -1.613,-7.043 h -12.906 l -57.567,-44.363 44.293,-56.543 h 13.055 l -1.539,-7.039 h -26.621 l -43.778,54.559 -9.058,-47.52 h 14.593 l -1.539,-7.039 h -44.769"
         style="fill:#000000;fill-opacity:1;fill-rule:nonzero;stroke:none"
         id="path134" /><path
         d="m 1105.5,496.055 h 311.805 V 892.899 H 1105.5 Z"
         style="fill:#f0ffe0;fill-opacity:1;fill-rule:evenodd;stroke:none"
         id="path136" /><path
         d="m 1034.63,566.922 h 453.535 V 822.035 H 1034.63 Z"
         style="fill:#f0ffe0;fill-opacity:1;fill-rule:evenodd;stroke:none"
         id="path138" /><path
         d="m 1105.5,822.035 h -70.87 c 0,39.137 31.73,70.863 70.87,70.863"
         style="fill:#f0ffe0;fill-opacity:1;fill-rule:nonzero;stroke:none"
         id="path140" /><path
         d="m 1034.63,822.035 c 0,39.137 31.73,70.863 70.87,70.863"
         style="fill:none;stroke:#000000;stroke-width:28.346;stroke-linecap:butt;stroke-linejoin:round;stroke-miterlimit:10;stroke-dasharray:none;stroke-opacity:1"
         id="path142" /><path
         d="M 1034.63,822.035 V 566.922"
         style="fill:none;stroke:#000000;stroke-width:28.346;stroke-linecap:butt;stroke-linejoin:round;stroke-miterlimit:10;stroke-dasharray:none;stroke-opacity:1"
         id="path144" /><path
         d="m 1105.5,566.922 v -70.867 c -39.14,0 -70.87,31.73 -70.87,70.867"
         style="fill:#f0ffe0;fill-opacity:1;fill-rule:nonzero;stroke:none"
         id="path146" /><path
         d="m 1105.5,496.055 c -39.14,0 -70.87,31.73 -70.87,70.867"
         style="fill:none;stroke:#000000;stroke-width:28.346;stroke-linecap:butt;stroke-linejoin:round;stroke-miterlimit:10;stroke-dasharray:none;stroke-opacity:1"
         id="path148" /><path
         d="m 1105.5,496.055 h 311.8"
         style="fill:none;stroke:#000000;stroke-width:28.346;stroke-linecap:butt;stroke-linejoin:round;stroke-miterlimit:10;stroke-dasharray:none;stroke-opacity:1"
         id="path150" /><path
         d="m 1417.3,566.922 h 70.86 c 0,-39.137 -31.72,-70.867 -70.86,-70.867"
         style="fill:#f0ffe0;fill-opacity:1;fill-rule:nonzero;stroke:none"
         id="path152" /><path
         d="m 1488.16,566.922 c 0,-39.137 -31.72,-70.867 -70.86,-70.867"
         style="fill:none;stroke:#000000;stroke-width:28.346;stroke-linecap:butt;stroke-linejoin:round;stroke-miterlimit:10;stroke-dasharray:none;stroke-opacity:1"
         id="path154" /><path
         d="M 1488.16,566.922 V 822.035"
         style="fill:none;stroke:#000000;stroke-width:28.346;stroke-linecap:butt;stroke-linejoin:round;stroke-miterlimit:10;stroke-dasharray:none;stroke-opacity:1"
         id="path156" /><path
         d="m 1417.3,822.035 v 70.863 c 39.14,0 70.86,-31.726 70.86,-70.863"
         style="fill:#f0ffe0;fill-opacity:1;fill-rule:nonzero;stroke:none"
         id="path158" /><path
         d="m 1417.3,892.898 c 39.14,0 70.86,-31.726 70.86,-70.863"
         style="fill:none;stroke:#000000;stroke-width:28.346;stroke-linecap:butt;stroke-linejoin:round;stroke-miterlimit:10;stroke-dasharray:none;stroke-opacity:1"
         id="path160" /><path
         d="M 1417.3,892.898 H 1105.5"
         style="fill:none;stroke:#000000;stroke-width:28.346;stroke-linecap:butt;stroke-linejoin:round;stroke-miterlimit:10;stroke-dasharray:none;stroke-opacity:1"
         id="path162" /><path
         d="m 1252.8,609.438 h -21.97 l -14.22,162.398 -77.48,-162.398 h -22 l -16.35,185.386 h -19.84 l 2.83,14.078 h 73.03 l -2.82,-14.078 h -24.89 l 12.97,-147.547 77.11,161.625 h 21.71 l 14.48,-163.347 71.06,149.269 h -23.06 l 2.82,14.078 h 57.64 L 1361,794.824 h -19.73 L 1252.8,609.438"
         style="fill:#000000;fill-opacity:1;fill-rule:nonzero;stroke:none"
         id="path164" /><path
         d="m 1326.74,660.691 16.83,-89.246 50.82,89.246 h -12.91 l 1.61,7.043 h 33.63 l -1.61,-7.043 H 1404 l -61.61,-107.945 h -13.19 l -20.02,107.945 h -11.44 l 1.61,7.043 h 41.76 l -1.61,-7.043 h -12.76"
         style="fill:#000000;fill-opacity:1;fill-rule:nonzero;stroke:none"
         id="path166" /><path
         d="m 85.0391,992.109 h 311.805 v 396.844 H 85.0391 Z"
         style="fill:#e0f4ff;fill-opacity:1;fill-rule:evenodd;stroke:none"
         id="path168" /><path
         d="m 14.1719,1062.98 h 453.539 v 255.113 H 14.1719 Z"
         style="fill:#e0f4ff;fill-opacity:1;fill-rule:evenodd;stroke:none"
         id="path170" /><path
         d="M 85.0391,1318.09 H 14.1719 c 0,39.14 31.7304,70.86 70.8672,70.86"
         style="fill:#e0f4ff;fill-opacity:1;fill-rule:nonzero;stroke:none"
         id="path172" /><path
         d="m 14.1719,1318.09 c 0,39.14 31.7304,70.86 70.8672,70.86"
         style="fill:none;stroke:#000000;stroke-width:28.346;stroke-linecap:butt;stroke-linejoin:round;stroke-miterlimit:10;stroke-dasharray:none;stroke-opacity:1"
         id="path174" /><path
         d="M 14.1719,1318.09 V 1062.98"
         style="fill:none;stroke:#000000;stroke-width:28.346;stroke-linecap:butt;stroke-linejoin:round;stroke-miterlimit:10;stroke-dasharray:none;stroke-opacity:1"
         id="path176" /><path
         d="m 85.0391,1062.98 v -70.871 c -39.1368,0 -70.8672,31.731 -70.8672,70.871"
         style="fill:#e0f4ff;fill-opacity:1;fill-rule:nonzero;stroke:none"
         id="path178" /><path
         d="m 85.0391,992.109 c -39.1368,0 -70.8672,31.731 -70.8672,70.871"
         style="fill:none;stroke:#000000;stroke-width:28.346;stroke-linecap:butt;stroke-linejoin:round;stroke-miterlimit:10;stroke-dasharray:none;stroke-opacity:1"
         id="path180" /><path
         d="M 85.0391,992.109 H 396.844"
         style="fill:none;stroke:#000000;stroke-width:28.346;stroke-linecap:butt;stroke-linejoin:round;stroke-miterlimit:10;stroke-dasharray:none;stroke-opacity:1"
         id="path182" /><path
         d="m 396.844,1062.98 h 70.863 c 0,-39.14 -31.727,-70.871 -70.863,-70.871"
         style="fill:#e0f4ff;fill-opacity:1;fill-rule:nonzero;stroke:none"
         id="path184" /><path
         d="m 467.707,1062.98 c 0,-39.14 -31.727,-70.871 -70.863,-70.871"
         style="fill:none;stroke:#000000;stroke-width:28.346;stroke-linecap:butt;stroke-linejoin:round;stroke-miterlimit:10;stroke-dasharray:none;stroke-opacity:1"
         id="path186" /><path
         d="m 467.711,1062.98 v 255.11"
         style="fill:none;stroke:#000000;stroke-width:28.346;stroke-linecap:butt;stroke-linejoin:round;stroke-miterlimit:10;stroke-dasharray:none;stroke-opacity:1"
         id="path188" /><path
         d="m 396.844,1318.09 v 70.86 c 39.136,0 70.863,-31.72 70.863,-70.86"
         style="fill:#e0f4ff;fill-opacity:1;fill-rule:nonzero;stroke:none"
         id="path190" /><path
         d="m 396.844,1388.95 c 39.136,0 70.863,-31.72 70.863,-70.86"
         style="fill:none;stroke:#000000;stroke-width:28.346;stroke-linecap:butt;stroke-linejoin:round;stroke-miterlimit:10;stroke-dasharray:none;stroke-opacity:1"
         id="path192" /><path
         d="M 396.844,1388.95 H 85.0391"
         style="fill:none;stroke:#000000;stroke-width:28.346;stroke-linecap:butt;stroke-linejoin:round;stroke-miterlimit:10;stroke-dasharray:none;stroke-opacity:1"
         id="path194" /><path
         d="m 164.398,1184.56 c 5.817,-1.93 11.465,-6.07 16.938,-12.43 5.5,-6.35 11.027,-15.08 16.574,-26.18 l 27.465,-54.63 h -29.078 l -25.629,51.26 c -6.602,13.4 -13.004,22.28 -19.215,26.66 -6.207,4.37 -14.676,6.56 -25.41,6.56 H 96.5273 v -84.48 H 69.4688 v 199.47 H 130.59 c 22.883,0 39.957,-4.78 51.223,-14.34 11.269,-9.56 16.906,-23.98 16.906,-43.27 0,-12.59 -2.934,-23.04 -8.801,-31.35 -5.844,-8.28 -14.348,-14.04 -25.52,-17.27 m -67.8707,85.11 v -72.75 H 130.59 c 13.055,0 22.906,3.08 29.555,9.24 6.671,6.18 10.007,15.28 10.007,27.28 0,11.98 -3.336,21.01 -10.007,27.1 -6.649,6.08 -16.5,9.13 -29.555,9.13 H 96.5273"
         style="fill:#000000;fill-opacity:1;fill-rule:nonzero;stroke:none"
         id="path196" /><path
         d="m 264.164,1290.79 h 36.449 l 88.766,-166.87 v 166.87 h 26.254 v -199.47 h -36.445 l -88.735,166.87 v -166.87 h -26.289 v 199.47"
         style="fill:#000000;fill-opacity:1;fill-rule:nonzero;stroke:none"
         id="path198" /><path
         d="m 240.941,892.898 v 99.211"
         style="fill:none;stroke:#000000;stroke-width:28.346;stroke-linecap:butt;stroke-linejoin:round;stroke-miterlimit:10;stroke-dasharray:none;stroke-opacity:1"
         id="path200" /><path
         d="m 595.266,992.109 h 311.805 v 396.844 H 595.266 Z"
         style="fill:#e0f4ff;fill-opacity:1;fill-rule:evenodd;stroke:none"
         id="path202" /><path
         d="m 524.402,1062.98 h 453.535 v 255.113 H 524.402 Z"
         style="fill:#e0f4ff;fill-opacity:1;fill-rule:evenodd;stroke:none"
         id="path204" /><path
         d="m 595.266,1318.09 h -70.864 c 0,39.14 31.727,70.86 70.864,70.86"
         style="fill:#e0f4ff;fill-opacity:1;fill-rule:nonzero;stroke:none"
         id="path206" /><path
         d="m 524.402,1318.09 c 0,39.14 31.727,70.86 70.864,70.86"
         style="fill:none;stroke:#000000;stroke-width:28.346;stroke-linecap:butt;stroke-linejoin:round;stroke-miterlimit:10;stroke-dasharray:none;stroke-opacity:1"
         id="path208" /><path
         d="M 524.402,1318.09 V 1062.98"
         style="fill:none;stroke:#000000;stroke-width:28.346;stroke-linecap:butt;stroke-linejoin:round;stroke-miterlimit:10;stroke-dasharray:none;stroke-opacity:1"
         id="path210" /><path
         d="m 595.266,1062.98 v -70.871 c -39.137,0 -70.864,31.731 -70.864,70.871"
         style="fill:#e0f4ff;fill-opacity:1;fill-rule:nonzero;stroke:none"
         id="path212" /><path
         d="m 595.266,992.109 c -39.137,0 -70.864,31.731 -70.864,70.871"
         style="fill:none;stroke:#000000;stroke-width:28.346;stroke-linecap:butt;stroke-linejoin:round;stroke-miterlimit:10;stroke-dasharray:none;stroke-opacity:1"
         id="path214" /><path
         d="M 595.266,992.109 H 907.07"
         style="fill:none;stroke:#000000;stroke-width:28.346;stroke-linecap:butt;stroke-linejoin:round;stroke-miterlimit:10;stroke-dasharray:none;stroke-opacity:1"
         id="path216" /><path
         d="m 907.07,1062.98 h 70.868 c 0,-39.14 -31.731,-70.871 -70.868,-70.871"
         style="fill:#e0f4ff;fill-opacity:1;fill-rule:nonzero;stroke:none"
         id="path218" /><path
         d="m 977.938,1062.98 c 0,-39.14 -31.731,-70.871 -70.868,-70.871"
         style="fill:none;stroke:#000000;stroke-width:28.346;stroke-linecap:butt;stroke-linejoin:round;stroke-miterlimit:10;stroke-dasharray:none;stroke-opacity:1"
         id="path220" /><path
         d="m 977.938,1062.98 v 255.11"
         style="fill:none;stroke:#000000;stroke-width:28.346;stroke-linecap:butt;stroke-linejoin:round;stroke-miterlimit:10;stroke-dasharray:none;stroke-opacity:1"
         id="path222" /><path
         d="m 907.07,1318.09 v 70.86 c 39.137,0 70.868,-31.72 70.868,-70.86"
         style="fill:#e0f4ff;fill-opacity:1;fill-rule:nonzero;stroke:none"
         id="path224" /><path
         d="m 907.07,1388.95 c 39.137,0 70.868,-31.72 70.868,-70.86"
         style="fill:none;stroke:#000000;stroke-width:28.346;stroke-linecap:butt;stroke-linejoin:round;stroke-miterlimit:10;stroke-dasharray:none;stroke-opacity:1"
         id="path226" /><path
         d="M 907.07,1388.95 H 595.266"
         style="fill:none;stroke:#000000;stroke-width:28.346;stroke-linecap:butt;stroke-linejoin:round;stroke-miterlimit:10;stroke-dasharray:none;stroke-opacity:1"
         id="path228" /><path
         d="m 674.625,1184.56 c 5.816,-1.93 11.465,-6.07 16.941,-12.43 5.5,-6.35 11.024,-15.08 16.571,-26.18 l 27.465,-54.63 h -29.079 l -25.628,51.26 c -6.598,13.4 -13.004,22.28 -19.211,26.66 -6.211,4.37 -14.68,6.56 -25.411,6.56 h -29.515 v -84.48 h -27.063 v 199.47 h 61.125 c 22.879,0 39.953,-4.78 51.223,-14.34 11.27,-9.56 16.902,-23.98 16.902,-43.27 0,-12.59 -2.933,-23.04 -8.8,-31.35 -5.84,-8.28 -14.348,-14.04 -25.52,-17.27 m -67.867,85.11 v -72.75 h 34.062 c 13.051,0 22.903,3.08 29.551,9.24 6.676,6.18 10.012,15.28 10.012,27.28 0,11.98 -3.336,21.01 -10.012,27.1 -6.648,6.08 -16.5,9.13 -29.551,9.13 h -34.062"
         style="fill:#000000;fill-opacity:1;fill-rule:nonzero;stroke:none"
         id="path230" /><path
         d="m 774.395,1290.79 h 36.445 l 88.769,-166.87 v 166.87 h 26.254 v -199.47 h -36.449 l -88.73,166.87 v -166.87 h -26.289 v 199.47"
         style="fill:#000000;fill-opacity:1;fill-rule:nonzero;stroke:none"
         id="path232" /><path
         d="m 751.168,892.898 v 99.211"
         style="fill:none;stroke:#000000;stroke-width:28.346;stroke-linecap:butt;stroke-linejoin:round;stroke-miterlimit:10;stroke-dasharray:none;stroke-opacity:1"
         id="path234" /><path
         d="m 155.902,1516.51 h 680.305 v 396.844 H 155.902 Z"
         style="fill:#e8e8ff;fill-opacity:1;fill-rule:evenodd;stroke:none"
         id="path236" /><path
         d="m 85.0391,1587.38 h 822.031 v 255.113 H 85.0391 Z"
         style="fill:#e8e8ff;fill-opacity:1;fill-rule:evenodd;stroke:none"
         id="path238" /><path
         d="M 155.902,1842.49 H 85.0391 c 0,39.14 31.7269,70.87 70.8629,70.87"
         style="fill:#e8e8ff;fill-opacity:1;fill-rule:nonzero;stroke:none"
         id="path240" /><path
         d="m 85.0391,1842.49 c 0,39.14 31.7269,70.87 70.8629,70.87"
         style="fill:none;stroke:#000000;stroke-width:28.346;stroke-linecap:butt;stroke-linejoin:round;stroke-miterlimit:10;stroke-dasharray:none;stroke-opacity:1"
         id="path242" /><path
         d="M 85.0391,1842.49 V 1587.38"
         style="fill:none;stroke:#000000;stroke-width:28.346;stroke-linecap:butt;stroke-linejoin:round;stroke-miterlimit:10;stroke-dasharray:none;stroke-opacity:1"
         id="path244" /><path
         d="m 155.902,1587.38 v -70.87 c -39.136,0 -70.8629,31.73 -70.8629,70.87"
         style="fill:#e8e8ff;fill-opacity:1;fill-rule:nonzero;stroke:none"
         id="path246" /><path
         d="m 155.902,1516.51 c -39.136,0 -70.8629,31.73 -70.8629,70.87"
         style="fill:none;stroke:#000000;stroke-width:28.346;stroke-linecap:butt;stroke-linejoin:round;stroke-miterlimit:10;stroke-dasharray:none;stroke-opacity:1"
         id="path248" /><path
         d="M 155.902,1516.51 H 836.207"
         style="fill:none;stroke:#000000;stroke-width:28.346;stroke-linecap:butt;stroke-linejoin:round;stroke-miterlimit:10;stroke-dasharray:none;stroke-opacity:1"
         id="path250" /><path
         d="m 836.207,1587.38 h 70.863 c 0,-39.14 -31.726,-70.87 -70.863,-70.87"
         style="fill:#e8e8ff;fill-opacity:1;fill-rule:nonzero;stroke:none"
         id="path252" /><path
         d="m 907.07,1587.38 c 0,-39.14 -31.726,-70.87 -70.863,-70.87"
         style="fill:none;stroke:#000000;stroke-width:28.346;stroke-linecap:butt;stroke-linejoin:round;stroke-miterlimit:10;stroke-dasharray:none;stroke-opacity:1"
         id="path254" /><path
         d="m 907.07,1587.38 v 255.11"
         style="fill:none;stroke:#000000;stroke-width:28.346;stroke-linecap:butt;stroke-linejoin:round;stroke-miterlimit:10;stroke-dasharray:none;stroke-opacity:1"
         id="path256" /><path
         d="m 836.207,1842.49 v 70.87 c 39.137,0 70.863,-31.73 70.863,-70.87"
         style="fill:#e8e8ff;fill-opacity:1;fill-rule:nonzero;stroke:none"
         id="path258" /><path
         d="m 836.207,1913.36 c 39.137,0 70.863,-31.73 70.863,-70.87"
         style="fill:none;stroke:#000000;stroke-width:28.346;stroke-linecap:butt;stroke-linejoin:round;stroke-miterlimit:10;stroke-dasharray:none;stroke-opacity:1"
         id="path260" /><path
         d="M 836.207,1913.36 H 155.902"
         style="fill:none;stroke:#000000;stroke-width:28.346;stroke-linecap:butt;stroke-linejoin:round;stroke-miterlimit:10;stroke-dasharray:none;stroke-opacity:1"
         id="path262" /><path
         d="m 263.609,1708.96 c 5.817,-1.92 11.465,-6.07 16.938,-12.42 5.5,-6.36 11.027,-15.09 16.574,-26.18 l 27.465,-54.64 h -29.078 l -25.629,51.26 c -6.602,13.4 -13.004,22.28 -19.215,26.66 -6.207,4.37 -14.676,6.56 -25.41,6.56 h -29.516 v -84.48 H 168.68 v 199.47 h 61.121 c 22.883,0 39.957,-4.78 51.222,-14.34 11.27,-9.56 16.907,-23.98 16.907,-43.26 0,-12.59 -2.934,-23.04 -8.801,-31.36 -5.844,-8.28 -14.348,-14.04 -25.52,-17.27 m -67.871,85.11 v -72.75 h 34.063 c 13.054,0 22.906,3.08 29.554,9.24 6.672,6.19 10.012,15.28 10.012,27.28 0,11.98 -3.34,21.01 -10.012,27.1 -6.648,6.08 -16.5,9.13 -29.554,9.13 h -34.063"
         style="fill:#000000;fill-opacity:1;fill-rule:nonzero;stroke:none"
         id="path264" /><path
         d="m 407.723,1749.48 c -13.227,0 -23.688,-5.23 -31.387,-15.69 -7.676,-10.47 -11.516,-24.79 -11.516,-42.97 0,-18.19 3.813,-32.52 11.442,-42.98 7.652,-10.46 18.136,-15.69 31.461,-15.69 13.148,0 23.562,5.24 31.238,15.73 7.699,10.51 11.551,24.82 11.551,42.94 0,18.01 -3.852,32.29 -11.551,42.82 -7.676,10.56 -18.09,15.84 -31.238,15.84 m 0.035,21.12 c 21.437,0 38.281,-7.06 50.527,-21.19 12.246,-14.11 18.367,-33.64 18.367,-58.59 0,-24.89 -6.121,-44.41 -18.367,-58.56 -12.246,-14.15 -29.09,-21.23 -50.527,-21.23 -21.559,0 -38.438,7.08 -50.637,21.23 -12.199,14.15 -18.297,33.67 -18.297,58.56 0,24.95 6.098,44.48 18.297,58.59 12.199,14.13 29.078,21.19 50.637,21.19"
         style="fill:#000000;fill-opacity:1;fill-rule:nonzero;stroke:none"
         id="path266" /><path
         d="m 549.023,1794.07 v -77.44 h 34.063 c 12.613,0 22.355,3.36 29.223,10.08 6.894,6.72 10.339,16.29 10.339,28.71 0,12.32 -3.445,21.84 -10.339,28.56 -6.868,6.73 -16.61,10.09 -29.223,10.09 h -34.063 m -27.058,21.12 h 61.121 c 22.441,0 39.406,-5.08 50.894,-15.22 11.489,-10.15 17.231,-24.99 17.231,-44.55 0,-19.75 -5.742,-34.67 -17.231,-44.77 -11.488,-10.1 -28.453,-15.14 -50.894,-15.14 h -34.063 v -79.79 h -27.058 v 199.47"
         style="fill:#000000;fill-opacity:1;fill-rule:nonzero;stroke:none"
         id="path268" /><path
         d="M 690.465,1815.19 H 817 v -21.12 h -99.477 v -61.02 h 95.332 v -21.12 h -95.332 v -75.09 h 101.895 v -21.12 H 690.465 v 199.47"
         style="fill:#000000;fill-opacity:1;fill-rule:nonzero;stroke:none"
         id="path270" /><path
         d="m 623.613,2792.08 h 311.805 v 396.844 H 623.613 Z"
         style="fill:#f0ffe0;fill-opacity:1;fill-rule:evenodd;stroke:none"
         id="path272" /><path
         d="m 552.746,2862.95 h 453.535 v 255.113 H 552.746 Z"
         style="fill:#f0ffe0;fill-opacity:1;fill-rule:evenodd;stroke:none"
         id="path274" /><path
         d="m 623.613,3118.06 h -70.867 c 0,39.14 31.731,70.87 70.867,70.87"
         style="fill:#f0ffe0;fill-opacity:1;fill-rule:nonzero;stroke:none"
         id="path276" /><path
         d="m 552.746,3118.06 c 0,39.14 31.731,70.87 70.867,70.87"
         style="fill:none;stroke:#000000;stroke-width:28.346;stroke-linecap:butt;stroke-linejoin:round;stroke-miterlimit:10;stroke-dasharray:none;stroke-opacity:1"
         id="path278" /><path
         d="M 552.746,3118.06 V 2862.95"
         style="fill:none;stroke:#000000;stroke-width:28.346;stroke-linecap:butt;stroke-linejoin:round;stroke-miterlimit:10;stroke-dasharray:none;stroke-opacity:1"
         id="path280" /><path
         d="m 623.613,2862.95 v -70.87 c -39.136,0 -70.867,31.73 -70.867,70.87"
         style="fill:#f0ffe0;fill-opacity:1;fill-rule:nonzero;stroke:none"
         id="path282" /><path
         d="m 623.613,2792.08 c -39.136,0 -70.867,31.73 -70.867,70.87"
         style="fill:none;stroke:#000000;stroke-width:28.346;stroke-linecap:butt;stroke-linejoin:round;stroke-miterlimit:10;stroke-dasharray:none;stroke-opacity:1"
         id="path284" /><path
         d="M 623.613,2792.08 H 935.418"
         style="fill:none;stroke:#000000;stroke-width:28.346;stroke-linecap:butt;stroke-linejoin:round;stroke-miterlimit:10;stroke-dasharray:none;stroke-opacity:1"
         id="path286" /><path
         d="m 935.418,2862.95 h 70.862 c 0,-39.14 -31.725,-70.87 -70.862,-70.87"
         style="fill:#f0ffe0;fill-opacity:1;fill-rule:nonzero;stroke:none"
         id="path288" /><path
         d="m 1006.28,2862.95 c 0,-39.14 -31.725,-70.87 -70.862,-70.87"
         style="fill:none;stroke:#000000;stroke-width:28.346;stroke-linecap:butt;stroke-linejoin:round;stroke-miterlimit:10;stroke-dasharray:none;stroke-opacity:1"
         id="path290" /><path
         d="m 1006.28,2862.95 v 255.11"
         style="fill:none;stroke:#000000;stroke-width:28.346;stroke-linecap:butt;stroke-linejoin:round;stroke-miterlimit:10;stroke-dasharray:none;stroke-opacity:1"
         id="path292" /><path
         d="m 935.418,3118.06 v 70.87 c 39.137,0 70.862,-31.73 70.862,-70.87"
         style="fill:#f0ffe0;fill-opacity:1;fill-rule:nonzero;stroke:none"
         id="path294" /><path
         d="m 935.418,3188.93 c 39.137,0 70.862,-31.73 70.862,-70.87"
         style="fill:none;stroke:#000000;stroke-width:28.346;stroke-linecap:butt;stroke-linejoin:round;stroke-miterlimit:10;stroke-dasharray:none;stroke-opacity:1"
         id="path296" /><path
         d="M 935.418,3188.93 H 623.613"
         style="fill:none;stroke:#000000;stroke-width:28.346;stroke-linecap:butt;stroke-linejoin:round;stroke-miterlimit:10;stroke-dasharray:none;stroke-opacity:1"
         id="path298" /><path
         d="m 770.914,2905.46 h -21.961 l -14.226,162.4 -77.477,-162.4 h -22 l -16.355,185.39 h -19.836 l 2.824,14.08 h 73.039 l -2.824,-14.08 h -24.895 l 12.981,-147.55 77.109,161.63 h 21.703 l 14.484,-163.35 71.059,149.27 h -23.062 l 2.824,14.08 h 57.64 l -2.824,-14.08 h -19.726 l -88.477,-185.39"
         style="fill:#000000;fill-opacity:1;fill-rule:nonzero;stroke:none"
         id="path300" /><path
         d="m 862.383,2854.75 c 12.543,0 22.844,4.31 30.91,12.94 8.094,8.63 13.773,21.39 17.051,38.28 3.277,16.94 2.554,29.71 -2.164,38.32 -4.692,8.63 -13.309,12.94 -25.848,12.94 -12.59,0 -22.93,-4.31 -31.019,-12.94 -8.094,-8.61 -13.778,-21.38 -17.051,-38.32 -3.278,-16.89 -2.555,-29.65 2.164,-38.28 4.715,-8.63 13.371,-12.94 25.957,-12.94 m -1.613,-8.21 c -7.797,0 -14.704,1.28 -20.715,3.85 -6.012,2.56 -11.012,6.33 -14.996,11.29 -4.598,5.72 -7.59,12.21 -8.985,19.47 -1.367,7.28 -1.16,15.56 0.625,24.82 1.781,9.27 4.766,17.54 8.946,24.83 4.203,7.31 9.742,13.82 16.609,19.54 5.988,5.01 12.453,8.79 19.398,11.33 6.965,2.54 14.395,3.81 22.293,3.81 16.621,0 28.989,-5.45 37.106,-16.35 8.113,-10.9 10.437,-25.29 6.965,-43.16 -1.809,-9.17 -4.84,-17.43 -9.094,-24.78 -4.227,-7.34 -9.75,-13.84 -16.57,-19.51 -5.989,-5.01 -12.469,-8.79 -19.434,-11.33 -6.941,-2.54 -14.324,-3.81 -22.148,-3.81"
         style="fill:#000000;fill-opacity:1;fill-rule:nonzero;stroke:none"
         id="path302" /><path
         d="m 240.941,1388.95 v 113.39"
         style="fill:none;stroke:#000000;stroke-width:28.346;stroke-linecap:butt;stroke-linejoin:round;stroke-miterlimit:10;stroke-dasharray:none;stroke-opacity:1"
         id="path304" /><path
         d="m 751.168,1388.95 v 113.39"
         style="fill:none;stroke:#000000;stroke-width:28.346;stroke-linecap:butt;stroke-linejoin:round;stroke-miterlimit:10;stroke-dasharray:none;stroke-opacity:1"
         id="path306" /><path
         d="m 240.941,1913.36 v 198.42"
         style="fill:none;stroke:#000000;stroke-width:28.346;stroke-linecap:butt;stroke-linejoin:round;stroke-miterlimit:10;stroke-dasharray:none;stroke-opacity:1"
         id="path308" /><path
         d="m 240.941,2111.78 21.258,-85.04 -21.258,21.26 -21.261,-21.26"
         style="fill:#000000;fill-opacity:1;fill-rule:evenodd;stroke:none"
         id="path310" /><path
         d="m 240.941,2111.78 21.258,-85.04 -21.258,21.26 -21.261,-21.26 z"
         style="fill:none;stroke:#000000;stroke-width:28.346;stroke-linecap:butt;stroke-linejoin:miter;stroke-miterlimit:10;stroke-dasharray:none;stroke-opacity:1"
         id="path312" /><path
         d="m 751.168,1913.36 2.5,197.3"
         style="fill:none;stroke:#000000;stroke-width:28.346;stroke-linecap:butt;stroke-linejoin:miter;stroke-miterlimit:10;stroke-dasharray:none;stroke-opacity:1"
         id="path314" /><path
         d="m 753.668,2110.66 20.184,-85.3 -20.993,21.53 -21.523,-20.99"
         style="fill:#000000;fill-opacity:1;fill-rule:evenodd;stroke:none"
         id="path316" /><path
         d="m 753.668,2110.66 20.184,-85.3 -20.993,21.53 -21.523,-20.99 z"
         style="fill:none;stroke:#000000;stroke-width:28.346;stroke-linecap:butt;stroke-linejoin:miter;stroke-miterlimit:10;stroke-dasharray:none;stroke-opacity:1"
         id="path318" /><path
         d="M 1261.4,892.898 V 2111.78"
         style="fill:none;stroke:#000000;stroke-width:28.346;stroke-linecap:butt;stroke-linejoin:miter;stroke-miterlimit:10;stroke-dasharray:none;stroke-opacity:1"
         id="path320" /><path
         d="m 1261.4,2111.78 21.26,-85.04 -21.26,21.26 -21.26,-21.26"
         style="fill:#000000;fill-opacity:1;fill-rule:evenodd;stroke:none"
         id="path322" /><path
         d="m 1261.4,2111.78 21.26,-85.04 -21.26,21.26 -21.26,-21.26 z"
         style="fill:none;stroke:#000000;stroke-width:28.346;stroke-linecap:butt;stroke-linejoin:miter;stroke-miterlimit:10;stroke-dasharray:none;stroke-opacity:1"
         id="path324" /><path
         d="m 779.516,2565.31 v 155.9"
         style="fill:none;stroke:#000000;stroke-width:28.346;stroke-linecap:butt;stroke-linejoin:miter;stroke-miterlimit:10;stroke-dasharray:none;stroke-opacity:1"
         id="path326" /><path
         d="m 779.516,2721.21 21.257,-85.03 -21.257,21.26 -21.262,-21.26"
         style="fill:#000000;fill-opacity:1;fill-rule:evenodd;stroke:none"
         id="path328" /><path
         d="m 779.516,2721.21 21.257,-85.03 -21.257,21.26 -21.262,-21.26 z"
         style="fill:none;stroke:#000000;stroke-width:28.346;stroke-linecap:butt;stroke-linejoin:miter;stroke-miterlimit:10;stroke-dasharray:none;stroke-opacity:1"
         id="path330" /><path
         d="m 779.516,3188.93 v 155.9"
         style="fill:none;stroke:#000000;stroke-width:28.346;stroke-linecap:butt;stroke-linejoin:miter;stroke-miterlimit:10;stroke-dasharray:none;stroke-opacity:1"
         id="path332" /><path
         d="m 779.516,3344.83 21.257,-85.04 -21.257,21.26 -21.262,-21.26"
         style="fill:#000000;fill-opacity:1;fill-rule:evenodd;stroke:none"
         id="path334" /><path
         d="m 779.516,3344.83 21.257,-85.04 -21.257,21.26 -21.262,-21.26 z"
         style="fill:none;stroke:#000000;stroke-width:28.346;stroke-linecap:butt;stroke-linejoin:miter;stroke-miterlimit:10;stroke-dasharray:none;stroke-opacity:1"
         id="path336" /></g></g></svg>
