<?xml version="1.0" encoding="UTF-8" standalone="no"?>
<!-- Created with Inkscape (http://www.inkscape.org/) -->

<svg
   version="1.1"
   id="svg2"
   xml:space="preserve"
   width="314.66666"
   height="321.33334"
   viewBox="0 0 314.66666 321.33334"
   sodipodi:docname="swiglu.svg"
   inkscape:version="1.1.2 (0a00cf5339, 2022-02-04)"
   xmlns:inkscape="http://www.inkscape.org/namespaces/inkscape"
   xmlns:sodipodi="http://sodipodi.sourceforge.net/DTD/sodipodi-0.dtd"
   xmlns="http://www.w3.org/2000/svg"
   xmlns:svg="http://www.w3.org/2000/svg"><defs
     id="defs6" /><sodipodi:namedview
     id="namedview4"
     pagecolor="#ffffff"
     bordercolor="#666666"
     borderopacity="1.0"
     inkscape:pageshadow="2"
     inkscape:pageopacity="0.0"
     inkscape:pagecheckerboard="0"
     showgrid="false"
     inkscape:zoom="2.2624481"
     inkscape:cx="59.669878"
     inkscape:cy="160.44567"
     inkscape:window-width="1920"
     inkscape:window-height="1025"
     inkscape:window-x="0"
     inkscape:window-y="27"
     inkscape:window-maximized="1"
     inkscape:current-layer="g8" /><g
     id="g8"
     inkscape:groupmode="layer"
     inkscape:label="ink_ext_XXXXXX"
     transform="matrix(1.3333333,0,0,-1.3333333,0,321.33333)"><g
       id="g10"
       transform="scale(0.1)"><path
         d="m 1445.64,425.191 h 822.035 V 822.035 H 1445.64 Z"
         style="fill:#f0ffe0;fill-opacity:1;fill-rule:evenodd;stroke:none"
         id="path12" /><path
         d="m 1374.78,496.055 h 963.766 V 751.168 H 1374.78 Z"
         style="fill:#f0ffe0;fill-opacity:1;fill-rule:evenodd;stroke:none"
         id="path14" /><path
         d="m 1445.64,751.168 h -70.86 c 0,39.137 31.73,70.867 70.86,70.867"
         style="fill:#f0ffe0;fill-opacity:1;fill-rule:nonzero;stroke:none"
         id="path16" /><path
         d="m 1374.78,751.168 c 0,39.137 31.73,70.867 70.86,70.867"
         style="fill:none;stroke:#000000;stroke-width:28.346;stroke-linecap:butt;stroke-linejoin:round;stroke-miterlimit:10;stroke-dasharray:none;stroke-opacity:1"
         id="path18" /><path
         d="M 1374.78,751.168 V 496.055"
         style="fill:none;stroke:#000000;stroke-width:28.346;stroke-linecap:butt;stroke-linejoin:round;stroke-miterlimit:10;stroke-dasharray:none;stroke-opacity:1"
         id="path20" /><path
         d="m 1445.64,496.055 v -70.864 c -39.13,0 -70.86,31.727 -70.86,70.864"
         style="fill:#f0ffe0;fill-opacity:1;fill-rule:nonzero;stroke:none"
         id="path22" /><path
         d="m 1445.64,425.191 c -39.13,0 -70.86,31.727 -70.86,70.864"
         style="fill:none;stroke:#000000;stroke-width:28.346;stroke-linecap:butt;stroke-linejoin:round;stroke-miterlimit:10;stroke-dasharray:none;stroke-opacity:1"
         id="path24" /><path
         d="m 1445.64,425.191 h 822.04"
         style="fill:none;stroke:#000000;stroke-width:28.346;stroke-linecap:butt;stroke-linejoin:round;stroke-miterlimit:10;stroke-dasharray:none;stroke-opacity:1"
         id="path26" /><path
         d="m 2267.68,496.055 h 70.87 c 0,-39.137 -31.73,-70.864 -70.87,-70.864"
         style="fill:#f0ffe0;fill-opacity:1;fill-rule:nonzero;stroke:none"
         id="path28" /><path
         d="m 2338.55,496.055 c 0,-39.137 -31.73,-70.864 -70.87,-70.864"
         style="fill:none;stroke:#000000;stroke-width:28.346;stroke-linecap:butt;stroke-linejoin:round;stroke-miterlimit:10;stroke-dasharray:none;stroke-opacity:1"
         id="path30" /><path
         d="M 2338.55,496.055 V 751.168"
         style="fill:none;stroke:#000000;stroke-width:28.346;stroke-linecap:butt;stroke-linejoin:round;stroke-miterlimit:10;stroke-dasharray:none;stroke-opacity:1"
         id="path32" /><path
         d="m 2267.68,751.168 v 70.867 c 39.14,0 70.87,-31.73 70.87,-70.867"
         style="fill:#f0ffe0;fill-opacity:1;fill-rule:nonzero;stroke:none"
         id="path34" /><path
         d="m 2267.68,822.035 c 39.14,0 70.87,-31.73 70.87,-70.867"
         style="fill:none;stroke:#000000;stroke-width:28.346;stroke-linecap:butt;stroke-linejoin:round;stroke-miterlimit:10;stroke-dasharray:none;stroke-opacity:1"
         id="path36" /><path
         d="M 2267.68,822.035 H 1445.64"
         style="fill:none;stroke:#000000;stroke-width:28.346;stroke-linecap:butt;stroke-linejoin:round;stroke-miterlimit:10;stroke-dasharray:none;stroke-opacity:1"
         id="path38" /><path
         d="m 1430.08,723.867 h 27.06 V 545.52 h 97.49 v -21.118 h -124.55 v 199.465"
         style="fill:#000000;fill-opacity:1;fill-rule:nonzero;stroke:none"
         id="path40" /><path
         d="m 1584.77,674.586 h 24.64 V 524.402 h -24.64 v 150.184 m 0,58.668 h 24.64 v -30.508 h -24.64 v 30.508"
         style="fill:#000000;fill-opacity:1;fill-rule:nonzero;stroke:none"
         id="path42" /><path
         d="m 1787.46,616.617 v -92.215 h -24.68 v 91.407 c 0,14.156 -2.77,24.75 -8.32,31.793 -5.55,7.039 -13.86,10.558 -24.93,10.558 -13.33,0 -23.84,-4.242 -31.54,-12.722 -7.67,-8.485 -11.51,-20.047 -11.51,-34.688 v -86.348 h -24.78 v 150.184 h 24.78 v -21.121 c 5.89,8.656 12.83,15.121 20.82,19.398 8.02,4.278 17.26,6.418 27.73,6.418 17.26,0 30.31,-5.304 39.16,-15.914 8.85,-10.586 13.27,-26.168 13.27,-46.75"
         style="fill:#000000;fill-opacity:1;fill-rule:nonzero;stroke:none"
         id="path44" /><path
         d="m 1968.05,606.535 v -11.734 h -113.41 c 1.07,-17.574 6.18,-30.973 15.33,-40.188 9.16,-9.191 21.94,-13.785 38.31,-13.785 9.46,0 18.64,1.172 27.54,3.52 8.9,2.347 17.72,5.867 26.47,10.558 v -23.465 c -8.84,-3.812 -17.91,-6.722 -27.2,-8.726 -9.29,-2.004 -18.73,-3.008 -28.31,-3.008 -23.96,0 -42.92,7.055 -56.9,21.156 -13.99,14.129 -20.98,33.219 -20.98,57.274 0,24.883 6.64,44.625 19.91,59.215 13.27,14.621 31.17,21.929 53.68,21.929 20.19,0 36.17,-6.527 47.92,-19.582 11.76,-13.027 17.64,-30.75 17.64,-53.164 m -24.64,7.039 c -0.17,13.567 -3.95,24.383 -11.33,32.449 -7.38,8.09 -17.15,12.137 -29.3,12.137 -13.76,0 -24.78,-3.91 -33.07,-11.734 -8.26,-7.797 -13.01,-18.797 -14.26,-33 l 87.96,0.148"
         style="fill:#000000;fill-opacity:1;fill-rule:nonzero;stroke:none"
         id="path46" /><path
         d="m 2079.92,599.492 c -19.95,0 -33.77,-2.285 -41.47,-6.855 -7.68,-4.547 -11.51,-12.309 -11.51,-23.282 0,-8.753 2.88,-15.695 8.65,-20.828 5.77,-5.132 13.62,-7.699 23.54,-7.699 13.66,0 24.63,4.828 32.89,14.485 8.29,9.652 12.43,22.5 12.43,38.535 v 5.644 h -24.53 m 49.21,9.903 v -84.993 h -24.68 v 21.118 c -5.62,-8.825 -12.64,-15.336 -21.05,-19.543 -8.4,-4.18 -18.69,-6.27 -30.83,-6.27 -15.38,0 -27.6,4.305 -36.67,12.906 -9.07,8.629 -13.6,20.18 -13.6,34.653 0,16.863 5.65,29.574 16.94,38.132 11.31,8.579 28.18,12.868 50.6,12.868 h 34.61 v 2.64 c 0,11.856 -3.74,21.024 -11.22,27.5 -7.46,6.504 -17.93,9.754 -31.42,9.754 -8.58,0 -16.94,-0.976 -25.08,-2.933 -8.12,-1.957 -15.93,-4.891 -23.43,-8.801 v 23.469 c 9.02,3.128 17.77,5.472 26.25,7.039 8.51,1.562 16.78,2.347 24.83,2.347 21.73,0 37.94,-5.781 48.65,-17.343 10.73,-11.54 16.1,-29.055 16.1,-52.543"
         style="fill:#000000;fill-opacity:1;fill-rule:nonzero;stroke:none"
         id="path48" /><path
         d="m 2270.03,651.121 c -2.76,2.418 -5.78,4.192 -9.06,5.317 -3.25,1.148 -6.84,1.722 -10.78,1.722 -13.96,0 -24.68,-4.597 -32.15,-13.785 -7.46,-9.168 -11.19,-22.332 -11.19,-39.492 v -80.481 h -24.79 v 150.184 h 24.79 v -21.121 c 5.18,8.726 11.93,15.207 20.24,19.433 8.34,4.254 18.44,6.383 30.32,6.383 1.72,0 3.6,-0.195 5.65,-0.59 2.05,-0.39 4.33,-0.976 6.82,-1.757 l 0.15,-25.813"
         style="fill:#000000;fill-opacity:1;fill-rule:nonzero;stroke:none"
         id="path50" /><path
         d="m 85.0391,425.191 h 822.035 V 822.035 H 85.0391 Z"
         style="fill:#f0ffe0;fill-opacity:1;fill-rule:evenodd;stroke:none"
         id="path52" /><path
         d="m 14.1719,496.055 h 963.766 V 751.168 H 14.1719 Z"
         style="fill:#f0ffe0;fill-opacity:1;fill-rule:evenodd;stroke:none"
         id="path54" /><path
         d="M 85.0391,751.168 H 14.1719 c 0,39.137 31.7304,70.867 70.8672,70.867"
         style="fill:#f0ffe0;fill-opacity:1;fill-rule:nonzero;stroke:none"
         id="path56" /><path
         d="m 14.1719,751.168 c 0,39.137 31.7304,70.867 70.8672,70.867"
         style="fill:none;stroke:#000000;stroke-width:28.346;stroke-linecap:butt;stroke-linejoin:round;stroke-miterlimit:10;stroke-dasharray:none;stroke-opacity:1"
         id="path58" /><path
         d="M 14.1719,751.168 V 496.055"
         style="fill:none;stroke:#000000;stroke-width:28.346;stroke-linecap:butt;stroke-linejoin:round;stroke-miterlimit:10;stroke-dasharray:none;stroke-opacity:1"
         id="path60" /><path
         d="m 85.0391,496.055 v -70.864 c -39.1368,0 -70.8672,31.727 -70.8672,70.864"
         style="fill:#f0ffe0;fill-opacity:1;fill-rule:nonzero;stroke:none"
         id="path62" /><path
         d="m 85.0391,425.191 c -39.1368,0 -70.8672,31.727 -70.8672,70.864"
         style="fill:none;stroke:#000000;stroke-width:28.346;stroke-linecap:butt;stroke-linejoin:round;stroke-miterlimit:10;stroke-dasharray:none;stroke-opacity:1"
         id="path64" /><path
         d="M 85.0391,425.191 H 907.074"
         style="fill:none;stroke:#000000;stroke-width:28.346;stroke-linecap:butt;stroke-linejoin:round;stroke-miterlimit:10;stroke-dasharray:none;stroke-opacity:1"
         id="path66" /><path
         d="m 907.074,496.055 h 70.864 c 0,-39.137 -31.727,-70.864 -70.864,-70.864"
         style="fill:#f0ffe0;fill-opacity:1;fill-rule:nonzero;stroke:none"
         id="path68" /><path
         d="m 977.938,496.055 c 0,-39.137 -31.727,-70.864 -70.864,-70.864"
         style="fill:none;stroke:#000000;stroke-width:28.346;stroke-linecap:butt;stroke-linejoin:round;stroke-miterlimit:10;stroke-dasharray:none;stroke-opacity:1"
         id="path70" /><path
         d="M 977.938,496.055 V 751.168"
         style="fill:none;stroke:#000000;stroke-width:28.346;stroke-linecap:butt;stroke-linejoin:round;stroke-miterlimit:10;stroke-dasharray:none;stroke-opacity:1"
         id="path72" /><path
         d="m 907.074,751.168 v 70.867 c 39.137,0 70.864,-31.73 70.864,-70.867"
         style="fill:#f0ffe0;fill-opacity:1;fill-rule:nonzero;stroke:none"
         id="path74" /><path
         d="m 907.074,822.035 c 39.137,0 70.864,-31.73 70.864,-70.867"
         style="fill:none;stroke:#000000;stroke-width:28.346;stroke-linecap:butt;stroke-linejoin:round;stroke-miterlimit:10;stroke-dasharray:none;stroke-opacity:1"
         id="path76" /><path
         d="M 907.074,822.035 H 85.0391"
         style="fill:none;stroke:#000000;stroke-width:28.346;stroke-linecap:butt;stroke-linejoin:round;stroke-miterlimit:10;stroke-dasharray:none;stroke-opacity:1"
         id="path78" /><path
         d="M 69.4688,723.867 H 96.5273 V 545.52 H 194.023 V 524.402 H 69.4688 v 199.465"
         style="fill:#000000;fill-opacity:1;fill-rule:nonzero;stroke:none"
         id="path80" /><path
         d="m 224.16,674.586 h 24.641 V 524.402 H 224.16 v 150.184 m 0,58.668 h 24.641 V 702.746 H 224.16 v 30.508"
         style="fill:#000000;fill-opacity:1;fill-rule:nonzero;stroke:none"
         id="path82" /><path
         d="m 426.852,616.617 v -92.215 h -24.676 v 91.407 c 0,14.156 -2.778,24.75 -8.324,31.793 -5.551,7.039 -13.86,10.558 -24.934,10.558 -13.324,0 -23.832,-4.242 -31.535,-12.722 -7.672,-8.485 -11.512,-20.047 -11.512,-34.688 v -86.348 h -24.785 v 150.184 h 24.785 v -21.121 c 5.891,8.656 12.832,15.121 20.828,19.398 8.016,4.278 17.258,6.418 27.719,6.418 17.258,0 30.309,-5.304 39.16,-15.914 8.848,-10.586 13.274,-26.168 13.274,-46.75"
         style="fill:#000000;fill-opacity:1;fill-rule:nonzero;stroke:none"
         id="path84" /><path
         d="m 607.441,606.535 v -11.734 h -113.41 c 1.078,-17.574 6.184,-30.973 15.328,-40.188 9.168,-9.191 21.938,-13.785 38.317,-13.785 9.461,0 18.637,1.172 27.535,3.52 8.898,2.347 17.723,5.867 26.473,10.558 v -23.465 c -8.848,-3.812 -17.918,-6.722 -27.207,-8.726 -9.286,-2.004 -18.723,-3.008 -28.305,-3.008 -23.957,0 -42.926,7.055 -56.906,21.156 -13.981,14.129 -20.973,33.219 -20.973,57.274 0,24.883 6.637,44.625 19.91,59.215 13.274,14.621 31.164,21.929 53.68,21.929 20.191,0 36.164,-6.527 47.922,-19.582 11.758,-13.027 17.636,-30.75 17.636,-53.164 m -24.64,7.039 c -0.172,13.567 -3.946,24.383 -11.328,32.449 -7.383,8.09 -17.149,12.137 -29.297,12.137 -13.762,0 -24.785,-3.91 -33.074,-11.734 -8.262,-7.797 -13.016,-18.797 -14.262,-33 l 87.961,0.148"
         style="fill:#000000;fill-opacity:1;fill-rule:nonzero;stroke:none"
         id="path86" /><path
         d="m 719.313,599.492 c -19.946,0 -33.77,-2.285 -41.469,-6.855 -7.676,-4.547 -11.516,-12.309 -11.516,-23.282 0,-8.753 2.887,-15.695 8.652,-20.828 5.77,-5.132 13.618,-7.699 23.543,-7.699 13.665,0 24.625,4.828 32.887,14.485 8.289,9.652 12.43,22.5 12.43,38.535 v 5.644 h -24.527 m 49.207,9.903 v -84.993 h -24.68 v 21.118 c -5.621,-8.825 -12.637,-15.336 -21.043,-19.543 -8.41,-4.18 -18.688,-6.27 -30.84,-6.27 -15.375,0 -27.598,4.305 -36.664,12.906 -9.07,8.629 -13.605,20.18 -13.605,34.653 0,16.863 5.648,29.574 16.941,38.132 11.316,8.579 28.184,12.868 50.601,12.868 h 34.61 v 2.64 c 0,11.856 -3.738,21.024 -11.219,27.5 -7.453,6.504 -17.93,9.754 -31.422,9.754 -8.582,0 -16.941,-0.976 -25.082,-2.933 -8.113,-1.957 -15.922,-4.891 -23.429,-8.801 v 23.469 c 9.023,3.128 17.773,5.472 26.253,7.039 8.508,1.562 16.782,2.347 24.825,2.347 21.73,0 37.949,-5.781 48.656,-17.343 10.73,-11.54 16.098,-29.055 16.098,-52.543"
         style="fill:#000000;fill-opacity:1;fill-rule:nonzero;stroke:none"
         id="path88" /><path
         d="m 909.418,651.121 c -2.762,2.418 -5.781,4.192 -9.059,5.317 -3.25,1.148 -6.843,1.722 -10.777,1.722 -13.957,0 -24.676,-4.597 -32.156,-13.785 -7.457,-9.168 -11.184,-22.332 -11.184,-39.492 v -80.481 h -24.785 v 150.184 h 24.785 v -21.121 c 5.18,8.726 11.93,15.207 20.238,19.433 8.336,4.254 18.446,6.383 30.325,6.383 1.711,0 3.593,-0.195 5.644,-0.59 2.055,-0.39 4.328,-0.976 6.821,-1.757 l 0.148,-25.813"
         style="fill:#000000;fill-opacity:1;fill-rule:nonzero;stroke:none"
         id="path90" /><path
         d="m 226.77,892.898 h 538.574 v 396.844 H 226.77 Z"
         style="fill:#e8e8ff;fill-opacity:1;fill-rule:evenodd;stroke:none"
         id="path92" /><path
         d="m 155.902,963.766 h 680.305 v 255.113 H 155.902 Z"
         style="fill:#e8e8ff;fill-opacity:1;fill-rule:evenodd;stroke:none"
         id="path94" /><path
         d="m 226.77,1218.88 h -70.868 c 0,39.14 31.731,70.86 70.868,70.86"
         style="fill:#e8e8ff;fill-opacity:1;fill-rule:nonzero;stroke:none"
         id="path96" /><path
         d="m 155.902,1218.88 c 0,39.14 31.731,70.86 70.868,70.86"
         style="fill:none;stroke:#000000;stroke-width:28.346;stroke-linecap:butt;stroke-linejoin:round;stroke-miterlimit:10;stroke-dasharray:none;stroke-opacity:1"
         id="path98" /><path
         d="M 155.902,1218.88 V 963.766"
         style="fill:none;stroke:#000000;stroke-width:28.346;stroke-linecap:butt;stroke-linejoin:round;stroke-miterlimit:10;stroke-dasharray:none;stroke-opacity:1"
         id="path100" /><path
         d="m 226.77,963.766 v -70.868 c -39.137,0 -70.868,31.731 -70.868,70.868"
         style="fill:#e8e8ff;fill-opacity:1;fill-rule:nonzero;stroke:none"
         id="path102" /><path
         d="m 226.77,892.898 c -39.137,0 -70.868,31.731 -70.868,70.868"
         style="fill:none;stroke:#000000;stroke-width:28.346;stroke-linecap:butt;stroke-linejoin:round;stroke-miterlimit:10;stroke-dasharray:none;stroke-opacity:1"
         id="path104" /><path
         d="M 226.77,892.898 H 765.344"
         style="fill:none;stroke:#000000;stroke-width:28.346;stroke-linecap:butt;stroke-linejoin:round;stroke-miterlimit:10;stroke-dasharray:none;stroke-opacity:1"
         id="path106" /><path
         d="m 765.344,963.766 h 70.863 c 0,-39.137 -31.727,-70.868 -70.863,-70.868"
         style="fill:#e8e8ff;fill-opacity:1;fill-rule:nonzero;stroke:none"
         id="path108" /><path
         d="m 836.207,963.766 c 0,-39.137 -31.727,-70.868 -70.863,-70.868"
         style="fill:none;stroke:#000000;stroke-width:28.346;stroke-linecap:butt;stroke-linejoin:round;stroke-miterlimit:10;stroke-dasharray:none;stroke-opacity:1"
         id="path110" /><path
         d="M 836.207,963.766 V 1218.88"
         style="fill:none;stroke:#000000;stroke-width:28.346;stroke-linecap:butt;stroke-linejoin:round;stroke-miterlimit:10;stroke-dasharray:none;stroke-opacity:1"
         id="path112" /><path
         d="m 765.344,1218.88 v 70.86 c 39.136,0 70.863,-31.72 70.863,-70.86"
         style="fill:#e8e8ff;fill-opacity:1;fill-rule:nonzero;stroke:none"
         id="path114" /><path
         d="m 765.344,1289.74 c 39.136,0 70.863,-31.72 70.863,-70.86"
         style="fill:none;stroke:#000000;stroke-width:28.346;stroke-linecap:butt;stroke-linejoin:round;stroke-miterlimit:10;stroke-dasharray:none;stroke-opacity:1"
         id="path116" /><path
         d="M 765.344,1289.74 H 226.77"
         style="fill:none;stroke:#000000;stroke-width:28.346;stroke-linecap:butt;stroke-linejoin:round;stroke-miterlimit:10;stroke-dasharray:none;stroke-opacity:1"
         id="path118" /><path
         d="m 331.172,1186.88 v -25.81 c -10.266,4.74 -19.961,8.27 -29.078,10.59 -9.117,2.33 -17.918,3.49 -26.399,3.49 -14.765,0 -26.144,-2.9 -34.136,-8.69 -7.993,-5.77 -11.989,-14 -11.989,-24.68 0,-8.94 2.653,-15.7 7.953,-20.28 5.332,-4.54 15.415,-8.22 30.25,-11.03 l 16.356,-3.41 c 20.191,-3.89 35.09,-10.73 44.695,-20.53 9.606,-9.81 14.41,-22.92 14.41,-39.35 0,-19.6 -6.504,-34.47 -19.507,-44.58 -13.004,-10.123 -32.059,-15.182 -57.161,-15.182 -9.461,0 -19.531,0.988 -30.214,2.969 -10.684,1.98 -21.743,4.902 -33.184,8.761 v 28.162 c 11,-6.21 21.77,-10.89 32.305,-14.04 10.535,-3.16 20.898,-4.73 31.093,-4.73 15.473,0 27.403,3.1 35.786,9.31 8.41,6.21 12.613,15.06 12.613,26.54 0,10.03 -3.02,17.86 -9.059,23.51 -6.035,5.67 -15.937,9.92 -29.699,12.76 l -16.5,3.3 c -20.191,4.03 -34.797,10.35 -43.816,18.95 -9.02,8.63 -13.528,20.63 -13.528,35.98 0,17.79 6.231,31.8 18.7,42.02 12.464,10.24 29.648,15.36 51.55,15.36 9.364,0 18.91,-0.79 28.637,-2.35 9.754,-1.56 19.727,-3.91 29.922,-7.04"
         style="fill:#000000;fill-opacity:1;fill-rule:nonzero;stroke:none"
         id="path120" /><path
         d="m 387.84,1142.3 h 24.64 V 992.109 H 387.84 V 1142.3 m 0,58.66 h 24.64 v -30.51 h -24.64 v 30.51"
         style="fill:#000000;fill-opacity:1;fill-rule:nonzero;stroke:none"
         id="path122" /><path
         d="m 466.781,1191.57 h 27.059 v -178.34 h 97.496 V 992.109 H 466.781 v 199.461"
         style="fill:#000000;fill-opacity:1;fill-rule:nonzero;stroke:none"
         id="path124" /><path
         d="m 605.301,1191.57 h 27.203 v -122.24 c 0,-21.56 3.887,-37.08 11.66,-46.57 7.774,-9.48 20.375,-14.22 37.805,-14.22 17.355,0 29.918,4.74 37.691,14.22 7.774,9.49 11.66,25.01 11.66,46.57 v 122.24 h 27.207 v -125.61 c 0,-25.91 -6.464,-45.48 -19.394,-58.71 -12.91,-13.223 -31.961,-19.832 -57.164,-19.832 -25.278,0 -44.379,6.609 -57.309,19.832 -12.906,13.23 -19.359,32.8 -19.359,58.71 v 125.61"
         style="fill:#000000;fill-opacity:1;fill-rule:nonzero;stroke:none"
         id="path126" /><path
         d="m 496.055,822.035 v 70.863"
         style="fill:none;stroke:#000000;stroke-width:28.346;stroke-linecap:butt;stroke-linejoin:round;stroke-miterlimit:10;stroke-dasharray:none;stroke-opacity:1"
         id="path128" /><path
         d="m 1247.82,1460.42 c 0,-46.96 -38.07,-85.03 -85.04,-85.03 -46.96,0 -85.04,38.07 -85.04,85.03 0,46.97 38.08,85.04 85.04,85.04 46.97,0 85.04,-38.07 85.04,-85.04"
         style="fill:#ffffff;fill-opacity:1;fill-rule:nonzero;stroke:none"
         id="path130" /><path
         d="m 1247.82,1460.42 c 0,-46.96 -38.07,-85.03 -85.04,-85.03 -46.96,0 -85.04,38.07 -85.04,85.03 0,46.97 38.08,85.04 85.04,85.04 46.97,0 85.04,-38.07 85.04,-85.04 z"
         style="fill:none;stroke:#000000;stroke-width:28.346;stroke-linecap:butt;stroke-linejoin:round;stroke-miterlimit:10;stroke-dasharray:none;stroke-opacity:1"
         id="path132" /><path
         d="m 1201.4,1490.62 -31.42,-31.64 31.42,-31.5 -8.21,-8.32 -31.53,31.64 -31.57,-31.64 -8.11,8.32 31.35,31.5 -31.35,31.64 8.11,8.33 31.57,-31.65 31.53,31.65 8.21,-8.33"
         style="fill:#000000;fill-opacity:1;fill-rule:nonzero;stroke:none"
         id="path134" /><path
         d="m 754.004,1785.8 h 822.035 v 396.844 H 754.004 Z"
         style="fill:#f0ffe0;fill-opacity:1;fill-rule:evenodd;stroke:none"
         id="path136" /><path
         d="m 683.141,1856.66 h 963.762 v 255.113 H 683.141 Z"
         style="fill:#f0ffe0;fill-opacity:1;fill-rule:evenodd;stroke:none"
         id="path138" /><path
         d="m 754.004,2111.78 h -70.867 c 0,39.13 31.73,70.86 70.867,70.86"
         style="fill:#f0ffe0;fill-opacity:1;fill-rule:nonzero;stroke:none"
         id="path140" /><path
         d="m 683.137,2111.78 c 0,39.13 31.73,70.86 70.867,70.86"
         style="fill:none;stroke:#000000;stroke-width:28.346;stroke-linecap:butt;stroke-linejoin:round;stroke-miterlimit:10;stroke-dasharray:none;stroke-opacity:1"
         id="path142" /><path
         d="M 683.141,2111.78 V 1856.66"
         style="fill:none;stroke:#000000;stroke-width:28.346;stroke-linecap:butt;stroke-linejoin:round;stroke-miterlimit:10;stroke-dasharray:none;stroke-opacity:1"
         id="path144" /><path
         d="m 754.004,1856.66 v -70.86 c -39.137,0 -70.867,31.73 -70.867,70.86"
         style="fill:#f0ffe0;fill-opacity:1;fill-rule:nonzero;stroke:none"
         id="path146" /><path
         d="m 754.004,1785.8 c -39.137,0 -70.867,31.73 -70.867,70.86"
         style="fill:none;stroke:#000000;stroke-width:28.346;stroke-linecap:butt;stroke-linejoin:round;stroke-miterlimit:10;stroke-dasharray:none;stroke-opacity:1"
         id="path148" /><path
         d="M 754.004,1785.8 H 1576.04"
         style="fill:none;stroke:#000000;stroke-width:28.346;stroke-linecap:butt;stroke-linejoin:round;stroke-miterlimit:10;stroke-dasharray:none;stroke-opacity:1"
         id="path150" /><path
         d="m 1576.04,1856.66 h 70.86 c 0,-39.13 -31.72,-70.86 -70.86,-70.86"
         style="fill:#f0ffe0;fill-opacity:1;fill-rule:nonzero;stroke:none"
         id="path152" /><path
         d="m 1646.9,1856.66 c 0,-39.13 -31.72,-70.86 -70.86,-70.86"
         style="fill:none;stroke:#000000;stroke-width:28.346;stroke-linecap:butt;stroke-linejoin:round;stroke-miterlimit:10;stroke-dasharray:none;stroke-opacity:1"
         id="path154" /><path
         d="m 1646.9,1856.66 v 255.12"
         style="fill:none;stroke:#000000;stroke-width:28.346;stroke-linecap:butt;stroke-linejoin:round;stroke-miterlimit:10;stroke-dasharray:none;stroke-opacity:1"
         id="path156" /><path
         d="m 1576.04,2111.78 v 70.86 c 39.14,0 70.86,-31.73 70.86,-70.86"
         style="fill:#f0ffe0;fill-opacity:1;fill-rule:nonzero;stroke:none"
         id="path158" /><path
         d="m 1576.04,2182.64 c 39.14,0 70.86,-31.73 70.86,-70.86"
         style="fill:none;stroke:#000000;stroke-width:28.346;stroke-linecap:butt;stroke-linejoin:round;stroke-miterlimit:10;stroke-dasharray:none;stroke-opacity:1"
         id="path160" /><path
         d="M 1576.04,2182.64 H 754.004"
         style="fill:none;stroke:#000000;stroke-width:28.346;stroke-linecap:butt;stroke-linejoin:round;stroke-miterlimit:10;stroke-dasharray:none;stroke-opacity:1"
         id="path162" /><path
         d="m 738.434,2084.47 h 27.058 v -178.34 h 97.496 v -21.12 H 738.434 v 199.46"
         style="fill:#000000;fill-opacity:1;fill-rule:nonzero;stroke:none"
         id="path164" /><path
         d="m 893.129,2035.2 h 24.637 v -150.19 h -24.637 v 150.19 m 0,58.66 h 24.637 v -30.5 h -24.637 v 30.5"
         style="fill:#000000;fill-opacity:1;fill-rule:nonzero;stroke:none"
         id="path166" /><path
         d="m 1095.82,1977.23 v -92.22 h -24.68 v 91.41 c 0,14.15 -2.77,24.75 -8.32,31.79 -5.55,7.04 -13.86,10.56 -24.94,10.56 -13.32,0 -23.83,-4.24 -31.53,-12.73 -7.674,-8.48 -11.514,-20.04 -11.514,-34.68 v -86.35 h -24.785 v 150.19 h 24.785 v -21.13 c 5.894,8.66 12.834,15.12 20.824,19.4 8.02,4.28 17.26,6.42 27.72,6.42 17.26,0 30.32,-5.31 39.16,-15.92 8.85,-10.58 13.28,-26.16 13.28,-46.74"
         style="fill:#000000;fill-opacity:1;fill-rule:nonzero;stroke:none"
         id="path168" /><path
         d="m 1276.41,1967.14 v -11.73 H 1163 c 1.07,-17.58 6.18,-30.97 15.32,-40.19 9.17,-9.19 21.94,-13.78 38.32,-13.78 9.46,0 18.64,1.17 27.54,3.52 8.89,2.34 17.72,5.86 26.47,10.56 v -23.47 c -8.85,-3.82 -17.92,-6.72 -27.2,-8.73 -9.29,-2 -18.73,-3 -28.31,-3 -23.96,0 -42.93,7.05 -56.91,21.15 -13.98,14.13 -20.97,33.22 -20.97,57.28 0,24.88 6.63,44.62 19.91,59.21 13.27,14.62 31.17,21.93 53.68,21.93 20.19,0 36.16,-6.53 47.92,-19.58 11.76,-13.03 17.64,-30.75 17.64,-53.17 m -24.64,7.04 c -0.17,13.57 -3.95,24.39 -11.33,32.45 -7.39,8.09 -17.15,12.14 -29.3,12.14 -13.76,0 -24.78,-3.91 -33.07,-11.73 -8.27,-7.8 -13.02,-18.8 -14.27,-33 l 87.97,0.14"
         style="fill:#000000;fill-opacity:1;fill-rule:nonzero;stroke:none"
         id="path170" /><path
         d="m 1388.28,1960.1 c -19.95,0 -33.77,-2.28 -41.47,-6.85 -7.68,-4.55 -11.51,-12.31 -11.51,-23.29 0,-8.75 2.88,-15.69 8.65,-20.82 5.77,-5.14 13.61,-7.7 23.54,-7.7 13.66,0 24.63,4.82 32.89,14.48 8.28,9.65 12.43,22.5 12.43,38.54 v 5.64 h -24.53 m 49.2,9.9 v -84.99 h -24.67 v 21.12 c -5.63,-8.83 -12.64,-15.34 -21.05,-19.54 -8.41,-4.18 -18.69,-6.27 -30.83,-6.27 -15.38,0 -27.6,4.3 -36.67,12.9 -9.07,8.63 -13.6,20.18 -13.6,34.65 0,16.87 5.64,29.58 16.93,38.13 11.32,8.59 28.19,12.88 50.61,12.88 h 34.61 v 2.64 c 0,11.85 -3.74,21.02 -11.22,27.5 -7.46,6.5 -17.93,9.75 -31.43,9.75 -8.57,0 -16.93,-0.98 -25.07,-2.93 -8.12,-1.96 -15.93,-4.89 -23.43,-8.8 v 23.46 c 9.02,3.13 17.77,5.48 26.25,7.04 8.5,1.57 16.78,2.35 24.82,2.35 21.73,0 37.95,-5.78 48.66,-17.35 10.73,-11.53 16.09,-29.05 16.09,-52.54"
         style="fill:#000000;fill-opacity:1;fill-rule:nonzero;stroke:none"
         id="path172" /><path
         d="m 1578.38,2011.73 c -2.76,2.42 -5.78,4.19 -9.05,5.31 -3.26,1.16 -6.85,1.73 -10.78,1.73 -13.96,0 -24.68,-4.6 -32.16,-13.79 -7.46,-9.16 -11.18,-22.33 -11.18,-39.49 v -80.48 h -24.79 v 150.19 h 24.79 v -21.13 c 5.18,8.73 11.93,15.21 20.24,19.44 8.33,4.25 18.44,6.38 30.32,6.38 1.71,0 3.59,-0.2 5.65,-0.59 2.05,-0.39 4.32,-0.98 6.82,-1.76 l 0.14,-25.81"
         style="fill:#000000;fill-opacity:1;fill-rule:nonzero;stroke:none"
         id="path174" /><path
         d="m 1162.78,1545.46 -0.59,169.47"
         style="fill:none;stroke:#000000;stroke-width:28.346;stroke-linecap:butt;stroke-linejoin:round;stroke-miterlimit:10;stroke-dasharray:none;stroke-opacity:1"
         id="path176" /><path
         d="m 1162.19,1714.93 21.56,-84.96 -21.34,21.19 -21.18,-21.34"
         style="fill:#000000;fill-opacity:1;fill-rule:evenodd;stroke:none"
         id="path178" /><path
         d="m 1162.19,1714.93 21.56,-84.96 -21.34,21.19 -21.18,-21.34 z"
         style="fill:none;stroke:#000000;stroke-width:28.346;stroke-linecap:butt;stroke-linejoin:miter;stroke-miterlimit:10;stroke-dasharray:none;stroke-opacity:1"
         id="path180" /><path
         d="m 1165.02,2182.64 v 161.57"
         style="fill:none;stroke:#000000;stroke-width:28.346;stroke-linecap:butt;stroke-linejoin:miter;stroke-miterlimit:10;stroke-dasharray:none;stroke-opacity:1"
         id="path182" /><path
         d="m 1165.02,2344.21 21.26,-85.03 -21.26,21.26 -21.26,-21.26"
         style="fill:#000000;fill-opacity:1;fill-rule:evenodd;stroke:none"
         id="path184" /><path
         d="m 1165.02,2344.21 21.26,-85.03 -21.26,21.26 -21.26,-21.26 z"
         style="fill:none;stroke:#000000;stroke-width:28.346;stroke-linecap:butt;stroke-linejoin:miter;stroke-miterlimit:10;stroke-dasharray:none;stroke-opacity:1"
         id="path186" /><path
         d="M 1204.71,14.1719 V 105.793"
         style="fill:none;stroke:#000000;stroke-width:28.346;stroke-linecap:butt;stroke-linejoin:miter;stroke-miterlimit:10;stroke-dasharray:none;stroke-opacity:1"
         id="path188" /><path
         d="m 1154.6,155.902 c 27.67,0 50.1,-22.437 50.1,-50.109"
         style="fill:none;stroke:#000000;stroke-width:28.346;stroke-linecap:butt;stroke-linejoin:miter;stroke-miterlimit:10;stroke-dasharray:none;stroke-opacity:1"
         id="path190" /><path
         d="M 1154.6,155.902 H 566.207"
         style="fill:none;stroke:#000000;stroke-width:28.346;stroke-linecap:butt;stroke-linejoin:miter;stroke-miterlimit:10;stroke-dasharray:none;stroke-opacity:1"
         id="path192" /><path
         d="m 566.207,155.902 c -38.742,0 -70.152,31.411 -70.152,70.153"
         style="fill:none;stroke:#000000;stroke-width:28.346;stroke-linecap:butt;stroke-linejoin:miter;stroke-miterlimit:10;stroke-dasharray:none;stroke-opacity:1"
         id="path194" /><path
         d="M 496.055,226.055 V 354.324"
         style="fill:none;stroke:#000000;stroke-width:28.346;stroke-linecap:butt;stroke-linejoin:miter;stroke-miterlimit:10;stroke-dasharray:none;stroke-opacity:1"
         id="path196" /><path
         d="m 496.055,354.324 21.261,-85.039 -21.261,21.262 -21.258,-21.262"
         style="fill:#000000;fill-opacity:1;fill-rule:evenodd;stroke:none"
         id="path198" /><path
         d="m 496.055,354.324 21.261,-85.039 -21.261,21.262 -21.258,-21.262 z"
         style="fill:none;stroke:#000000;stroke-width:28.346;stroke-linecap:butt;stroke-linejoin:miter;stroke-miterlimit:10;stroke-dasharray:none;stroke-opacity:1"
         id="path200" /><path
         d="M 1204.71,14.1719 V 105.793"
         style="fill:none;stroke:#000000;stroke-width:28.346;stroke-linecap:butt;stroke-linejoin:miter;stroke-miterlimit:10;stroke-dasharray:none;stroke-opacity:1"
         id="path202" /><path
         d="m 1204.7,105.793 c 0,27.672 22.44,50.109 50.11,50.109"
         style="fill:none;stroke:#000000;stroke-width:28.346;stroke-linecap:butt;stroke-linejoin:miter;stroke-miterlimit:10;stroke-dasharray:none;stroke-opacity:1"
         id="path204" /><path
         d="m 1254.81,155.902 h 531.7"
         style="fill:none;stroke:#000000;stroke-width:28.346;stroke-linecap:butt;stroke-linejoin:miter;stroke-miterlimit:10;stroke-dasharray:none;stroke-opacity:1"
         id="path206" /><path
         d="m 1856.66,226.055 c 0,-38.742 -31.41,-70.153 -70.15,-70.153"
         style="fill:none;stroke:#000000;stroke-width:28.346;stroke-linecap:butt;stroke-linejoin:miter;stroke-miterlimit:10;stroke-dasharray:none;stroke-opacity:1"
         id="path208" /><path
         d="M 1856.66,226.055 V 354.324"
         style="fill:none;stroke:#000000;stroke-width:28.346;stroke-linecap:butt;stroke-linejoin:miter;stroke-miterlimit:10;stroke-dasharray:none;stroke-opacity:1"
         id="path210" /><path
         d="m 1856.66,354.324 21.26,-85.039 -21.26,21.262 -21.26,-21.262"
         style="fill:#000000;fill-opacity:1;fill-rule:evenodd;stroke:none"
         id="path212" /><path
         d="m 1856.66,354.324 21.26,-85.039 -21.26,21.262 -21.26,-21.262 z"
         style="fill:none;stroke:#000000;stroke-width:28.346;stroke-linecap:butt;stroke-linejoin:miter;stroke-miterlimit:10;stroke-dasharray:none;stroke-opacity:1"
         id="path214" /><path
         d="m 496.055,1289.74 v 109.95"
         style="fill:none;stroke:#000000;stroke-width:28.346;stroke-linecap:butt;stroke-linejoin:miter;stroke-miterlimit:10;stroke-dasharray:none;stroke-opacity:1"
         id="path216" /><path
         d="m 496.055,1399.69 c 0,33.2 26.925,60.13 60.133,60.13"
         style="fill:none;stroke:#000000;stroke-width:28.346;stroke-linecap:butt;stroke-linejoin:miter;stroke-miterlimit:10;stroke-dasharray:none;stroke-opacity:1"
         id="path218" /><path
         d="M 556.188,1459.82 H 1006.29"
         style="fill:none;stroke:#000000;stroke-width:28.346;stroke-linecap:butt;stroke-linejoin:miter;stroke-miterlimit:10;stroke-dasharray:none;stroke-opacity:1"
         id="path220" /><path
         d="m 1006.29,1459.82 -85.044,-21.26 21.258,21.26 -21.258,21.26"
         style="fill:#000000;fill-opacity:1;fill-rule:evenodd;stroke:none"
         id="path222" /><path
         d="m 1006.29,1459.82 -85.044,-21.26 21.258,21.26 -21.258,21.26 z"
         style="fill:none;stroke:#000000;stroke-width:28.346;stroke-linecap:butt;stroke-linejoin:miter;stroke-miterlimit:10;stroke-dasharray:none;stroke-opacity:1"
         id="path224" /><path
         d="M 1856.66,822.035 V 1318.09"
         style="fill:none;stroke:#000000;stroke-width:28.346;stroke-linecap:butt;stroke-linejoin:miter;stroke-miterlimit:10;stroke-dasharray:none;stroke-opacity:1"
         id="path226" /><path
         d="m 1714.93,1459.82 c 78.28,0 141.73,-63.46 141.73,-141.73"
         style="fill:none;stroke:#000000;stroke-width:28.346;stroke-linecap:butt;stroke-linejoin:miter;stroke-miterlimit:10;stroke-dasharray:none;stroke-opacity:1"
         id="path228" /><path
         d="M 1714.93,1459.82 H 1318.09"
         style="fill:none;stroke:#000000;stroke-width:28.346;stroke-linecap:butt;stroke-linejoin:miter;stroke-miterlimit:10;stroke-dasharray:none;stroke-opacity:1"
         id="path230" /><path
         d="m 1318.09,1459.82 85.04,21.26 -21.26,-21.26 21.26,-21.26"
         style="fill:#000000;fill-opacity:1;fill-rule:evenodd;stroke:none"
         id="path232" /><path
         d="m 1318.09,1459.82 85.04,21.26 -21.26,-21.26 21.26,-21.26 z"
         style="fill:none;stroke:#000000;stroke-width:28.346;stroke-linecap:butt;stroke-linejoin:miter;stroke-miterlimit:10;stroke-dasharray:none;stroke-opacity:1"
         id="path234" /></g></g></svg>
